<?xml version="1.0" standalone="no"?>
<!DOCTYPE svg PUBLIC "-//W3C//DTD SVG 20010904//EN"
 "http://www.w3.org/TR/2001/REC-SVG-20010904/DTD/svg10.dtd">
<svg version="1.0" xmlns="http://www.w3.org/2000/svg"
 width="723.000000pt" height="723.000000pt" viewBox="0 0 723.000000 723.000000"
 preserveAspectRatio="xMidYMid meet">
<metadata>
Created by potrace 1.11, written by Peter Selinger 2001-2013
</metadata>
<g transform="translate(0.000000,723.000000) scale(0.100000,-0.100000)"
fill="#000000" stroke="none">
<path d="M3581 5995 c2 -5 -4 -35 -14 -65 -20 -67 -109 -411 -149 -575 -16
-66 -31 -127 -33 -135 -3 -14 -41 -182 -51 -225 -2 -11 -7 -35 -10 -53 -7 -37
-11 -39 -69 -46 -22 -3 -40 -5 -40 -7 0 -1 -9 -3 -20 -4 -41 -6 -82 -15 -155
-35 -41 -12 -81 -22 -87 -22 -7 -1 -13 -4 -13 -8 0 -4 -6 -7 -12 -8 -27 -1
-61 -12 -73 -22 -9 -7 -15 -7 -22 2 -9 11 -85 141 -146 248 -20 37 -152 267
-220 385 -22 39 -50 86 -62 105 -12 19 -29 51 -39 70 -9 19 -26 46 -37 60 -17
21 -19 22 -15 5 3 -11 8 -45 11 -75 4 -30 8 -62 10 -70 2 -8 7 -37 10 -65 3
-27 8 -61 10 -75 3 -14 7 -41 10 -60 8 -64 26 -195 30 -220 5 -26 7 -45 25
-175 6 -44 13 -91 16 -105 2 -14 6 -47 10 -74 3 -28 9 -69 13 -93 l9 -44 -57
-36 c-31 -19 -66 -44 -78 -56 -13 -11 -23 -16 -23 -11 0 5 -4 4 -8 -2 -4 -5
-28 -25 -54 -44 -27 -18 -48 -37 -48 -42 0 -5 -4 -7 -9 -4 -5 4 -11 3 -13 -1
-1 -5 -38 -38 -81 -76 l-78 -67 -42 27 c-23 15 -44 30 -47 34 -3 3 -32 24 -65
46 -129 86 -160 107 -163 115 -2 5 -7 6 -12 3 -4 -2 -20 6 -36 20 -16 13 -41
30 -56 36 -15 6 -28 15 -28 20 0 5 -7 9 -15 9 -8 0 -15 5 -15 10 0 6 -6 10
-13 10 -7 0 -23 9 -35 20 -12 12 -22 17 -22 13 0 -4 -6 -1 -13 8 -12 15 -42
30 -53 26 -3 -1 -10 6 -15 16 -6 9 -14 17 -19 17 -4 0 -48 24 -96 54 -49 30
-90 53 -92 51 -8 -7 220 -550 349 -832 43 -95 79 -176 79 -180 0 -4 -20 -39
-45 -76 -25 -38 -45 -71 -45 -74 0 -3 -9 -18 -21 -34 -29 -41 -189 -356 -183
-362 2 -2 -2 -10 -10 -16 -11 -10 -25 -9 -62 4 -25 8 -49 13 -52 10 -3 -3 -14
2 -24 12 -13 11 -18 12 -18 3 0 -10 -3 -10 -15 0 -8 6 -18 9 -24 6 -5 -3 -11
-3 -13 2 -1 4 -43 17 -93 30 -49 12 -94 24 -100 26 -5 1 -28 7 -50 11 -55 12
-55 12 -57 15 -2 1 -10 3 -18 5 -17 4 -96 23 -125 31 -11 3 -27 7 -35 9 -8 2
-15 4 -15 5 0 1 -11 4 -60 14 -5 1 -16 5 -22 9 -7 5 -13 6 -13 4 0 -3 -21 1
-46 9 l-47 14 86 -83 c48 -45 113 -107 145 -137 111 -104 304 -285 350 -329
126 -117 142 -133 142 -139 0 -4 -11 -53 -25 -110 -14 -56 -27 -115 -30 -130
-3 -15 -7 -38 -10 -52 -3 -14 -10 -59 -16 -100 -6 -41 -12 -77 -14 -80 -2 -3
-6 -39 -10 -79 -10 -113 -17 -137 -36 -126 -5 4 -9 2 -9 -3 0 -5 -6 -9 -12 -9
-7 -1 -41 -12 -75 -26 -34 -14 -64 -22 -67 -19 -3 3 -6 0 -6 -7 0 -7 -6 -11
-14 -8 -8 3 -16 1 -18 -4 -2 -6 -16 -12 -31 -12 -15 -1 -27 -5 -27 -8 0 -4
-28 -17 -62 -30 -35 -12 -97 -39 -138 -58 -41 -19 -81 -33 -88 -32 -6 1 -12
-3 -12 -9 0 -6 -4 -9 -9 -5 -5 3 -12 1 -16 -5 -4 -6 -11 -8 -16 -5 -5 4 -9 1
-9 -4 0 -6 -6 -11 -12 -11 -7 0 -33 -10 -58 -22 -25 -12 -48 -20 -52 -20 -5 1
-8 -3 -8 -9 0 -5 -4 -8 -9 -4 -5 3 -12 1 -16 -5 -4 -6 -11 -8 -16 -5 -5 4 -9
2 -9 -4 0 -5 -14 -12 -31 -16 -17 -4 -33 -13 -36 -21 -3 -8 -8 -12 -12 -10 -3
2 -33 -9 -66 -25 l-60 -28 3600 0 3600 0 -45 21 c-25 12 -48 20 -52 20 -5 -1
-8 3 -8 8 0 6 -4 10 -10 10 -5 0 -40 14 -77 31 -136 62 -158 72 -178 79 -11 4
-40 17 -65 28 -78 37 -125 55 -132 54 -5 -1 -8 3 -8 9 0 5 -5 7 -10 4 -6 -4
-16 -3 -23 3 -7 5 -50 23 -97 41 -47 18 -96 38 -110 44 -14 6 -28 11 -32 11
-3 1 -10 4 -14 8 -4 5 -13 8 -21 8 -7 0 -30 7 -51 16 -20 10 -48 19 -62 21
-32 5 -52 25 -55 55 -26 217 -25 212 -61 388 -28 134 -27 131 -39 173 -6 24
-2 32 30 62 20 19 41 35 46 35 6 0 7 5 4 10 -3 6 -2 10 3 10 5 0 54 44 110 98
56 55 102 98 102 96 0 -1 17 14 38 34 21 20 94 89 161 152 68 63 138 129 155
145 18 17 51 47 73 67 42 37 47 56 9 36 -11 -7 -32 -13 -46 -14 -14 -1 -26 -3
-27 -4 -2 -1 -6 -3 -10 -4 -5 -1 -12 -4 -18 -7 -5 -4 -18 -5 -27 -4 -10 2 -18
0 -18 -4 0 -4 -8 -7 -17 -8 -10 -1 -36 -6 -58 -13 -22 -6 -49 -12 -60 -14 -11
-2 -20 -4 -20 -5 0 -4 -39 -12 -62 -14 -13 0 -23 -4 -23 -7 0 -4 -6 -7 -12 -7
-7 0 -33 -6 -58 -13 -25 -7 -52 -14 -60 -16 -8 -2 -35 -8 -60 -14 -24 -6 -49
-14 -55 -19 -5 -4 -20 -6 -32 -5 -13 0 -23 -2 -23 -5 0 -4 -8 -7 -17 -8 -19
-1 -53 -8 -83 -18 -10 -3 -27 -8 -37 -10 -83 -18 -81 -18 -92 4 -7 12 -9 21
-7 21 5 0 -141 293 -167 335 -7 10 -35 55 -63 100 l-51 81 34 74 c68 147 215
478 218 490 0 3 11 27 23 54 12 27 22 50 22 53 0 2 9 23 19 46 11 23 38 89 61
147 23 58 47 116 53 130 19 47 17 52 -11 34 -15 -10 -40 -25 -57 -33 -16 -8
-32 -17 -35 -20 -3 -3 -14 -11 -25 -18 -88 -52 -161 -97 -165 -103 -3 -4 -15
-10 -27 -14 -13 -4 -23 -12 -23 -17 0 -5 -7 -9 -15 -9 -8 0 -15 -4 -15 -10 0
-5 -5 -10 -10 -10 -11 0 -116 -66 -138 -87 -6 -6 -21 -15 -32 -18 -11 -3 -20
-11 -20 -16 0 -5 -4 -9 -9 -9 -13 0 -134 -82 -144 -97 -4 -7 -12 -13 -18 -13
-11 0 -72 -41 -77 -52 -7 -15 -25 -8 -54 22 -15 17 -31 30 -33 30 -3 0 -19 12
-35 28 -15 15 -45 41 -66 57 -20 17 -42 35 -48 40 -6 6 -23 16 -38 24 -15 8
-25 18 -22 23 3 4 0 8 -6 8 -5 0 -40 19 -76 43 l-65 42 6 65 c6 72 10 114 25
245 12 109 17 160 25 245 4 36 8 76 11 90 2 14 6 57 10 95 3 39 7 80 9 93 2
13 7 53 10 90 4 37 10 95 14 130 4 34 5 62 1 62 -3 0 -14 -17 -24 -37 -10 -21
-38 -75 -62 -120 -25 -46 -45 -86 -45 -90 0 -5 -4 -12 -9 -18 -8 -10 -119
-221 -285 -540 -59 -114 -76 -130 -103 -103 -7 7 -12 9 -12 5 0 -4 -13 -1 -29
7 -16 9 -31 12 -35 9 -3 -4 -6 -1 -6 6 0 7 -5 9 -10 6 -6 -4 -17 -1 -25 5 -8
7 -15 10 -15 6 0 -3 -11 -1 -25 4 -14 5 -38 12 -53 15 -38 8 -57 13 -57 15 0
3 -38 10 -70 15 -16 2 -39 6 -50 9 -11 2 -31 5 -46 5 -23 1 -26 7 -48 99 -22
93 -98 411 -106 442 -21 78 -26 97 -29 110 -21 84 -39 153 -50 190 -8 25 -26
90 -41 145 -15 55 -31 105 -37 110 -6 7 -9 7 -7 0z m1116 -781 c-25 -82 -69
-230 -98 -329 -29 -99 -54 -181 -55 -183 0 -1 -27 10 -58 24 -56 25 -78 49
-60 63 5 3 28 42 51 86 23 44 71 136 107 205 36 69 85 162 108 207 23 46 43
81 45 79 3 -2 -16 -71 -40 -152z m-2194 54 c60 -102 158 -273 190 -328 10 -19
37 -66 59 -103 22 -38 38 -70 36 -71 -1 -1 -30 -13 -64 -28 l-61 -25 -79 236
c-43 130 -93 275 -110 324 -17 48 -30 87 -28 87 1 0 27 -42 57 -92z m2284 75
c-3 -5 -8 -42 -12 -83 -3 -41 -8 -86 -10 -100 -4 -30 -12 -102 -20 -190 -4
-36 -8 -78 -10 -95 -2 -16 -6 -59 -10 -95 -4 -36 -9 -74 -10 -85 -1 -11 -3
-34 -4 -52 l-1 -32 -48 27 c-91 50 -85 38 -58 127 13 44 51 175 85 290 34 116
66 221 71 235 4 14 11 33 14 43 3 9 8 17 11 17 4 0 4 -3 2 -7z m-2314 -195 c0
-10 4 -18 7 -18 4 0 12 -24 19 -52 8 -29 16 -57 19 -63 4 -5 30 -80 58 -165
l52 -155 -46 -23 c-26 -13 -52 -28 -59 -33 -18 -15 -19 -9 -39 139 -5 42 -13
94 -19 135 -10 64 -46 333 -51 377 -4 40 -1 35 26 -40 17 -47 32 -93 33 -102z
m-1658 -1857 c33 -7 67 -16 75 -19 8 -3 18 -6 23 -7 4 -2 10 -4 15 -5 4 -1 15
-2 25 -1 9 1 17 -2 17 -6 0 -5 10 -10 23 -10 19 -1 237 -55 274 -68 16 -5 -35
-152 -53 -152 -7 0 -11 4 -8 9 3 4 -3 8 -13 8 -10 0 -29 9 -43 20 -14 11 -31
20 -37 20 -7 0 -13 5 -13 10 0 6 -9 10 -20 10 -11 0 -20 4 -20 9 0 5 -15 14
-32 22 -18 7 -35 15 -38 18 -3 3 -14 11 -25 17 -88 47 -111 60 -115 65 -3 3
-20 11 -37 18 -18 8 -33 16 -33 20 0 4 -14 12 -31 18 -18 7 -28 16 -24 23 4 7
11 7 18 2 7 -5 39 -14 72 -21z m5697 8 c-12 -5 -22 -13 -22 -19 0 -6 -4 -9 -9
-6 -5 3 -20 -3 -34 -15 -15 -11 -29 -19 -33 -18 -3 1 -25 -11 -49 -26 -24 -15
-47 -26 -51 -25 -4 1 -10 -2 -13 -7 -3 -5 -27 -20 -53 -33 -27 -14 -48 -29
-48 -34 0 -4 -7 -6 -15 -2 -8 3 -15 1 -15 -3 0 -5 -24 -21 -52 -36 -29 -15
-56 -33 -60 -39 -4 -6 -8 -8 -8 -4 0 4 -19 -3 -43 -17 l-43 -24 -25 72 c-28
84 -29 99 -9 103 71 11 123 26 138 37 8 6 12 5 12 -4 0 -10 3 -10 8 -3 4 6 41
19 82 28 41 10 80 22 87 28 9 7 13 7 13 -2 0 -9 4 -9 13 -3 12 10 44 20 117
37 66 15 102 25 107 30 3 3 10 3 16 -1 6 -3 1 -10 -11 -14z m-5762 -64 c19
-10 37 -21 40 -24 3 -3 28 -17 55 -31 28 -14 56 -30 63 -37 7 -7 20 -13 28
-13 8 0 14 -4 14 -9 0 -5 10 -12 23 -16 12 -4 24 -8 27 -9 10 -4 75 -45 86
-55 7 -5 15 -7 18 -4 3 4 6 1 6 -6 0 -7 4 -10 9 -6 5 3 12 1 16 -5 3 -5 21
-17 40 -25 30 -15 32 -19 25 -43 -5 -15 -16 -51 -25 -81 l-16 -53 -26 23 c-40
37 -159 148 -220 207 -30 28 -58 52 -61 52 -4 0 -16 14 -27 30 -11 16 -23 30
-27 30 -8 0 -118 109 -118 117 0 3 8 -1 18 -9 9 -9 33 -24 52 -33z m5741 -34
c-23 -23 -41 -40 -41 -38 0 2 -51 -45 -112 -104 -62 -60 -156 -148 -208 -198
l-95 -90 -21 72 c-34 112 -34 111 4 126 37 16 86 44 94 56 4 6 8 6 8 1 0 -5 8
-2 18 6 9 8 42 28 72 44 30 16 57 31 60 34 5 5 67 39 125 69 17 9 32 19 33 24
2 4 7 5 12 2 4 -3 13 2 20 10 7 8 18 15 25 15 7 0 19 7 26 16 8 9 15 12 17 6
2 -6 -15 -29 -37 -51z"/>
</g>
</svg>
