<?xml version="1.0" standalone="no"?>
<!DOCTYPE svg PUBLIC "-//W3C//DTD SVG 20010904//EN"
 "http://www.w3.org/TR/2001/REC-SVG-20010904/DTD/svg10.dtd">
<svg version="1.0" xmlns="http://www.w3.org/2000/svg"
 width="283.000000pt" height="283.000000pt" viewBox="0 0 283.000000 283.000000"
 preserveAspectRatio="xMidYMid meet">
<metadata>
Created by potrace 1.11, written by Peter Selinger 2001-2013
</metadata>
<g transform="translate(0.000000,283.000000) scale(0.100000,-0.100000)"
fill="#000000" stroke="none">
<path d="M1383 2187 c-17 -56 -39 -127 -47 -157 l-16 -56 -87 -16 c-81 -16
-88 -16 -100 0 -7 9 -48 66 -90 125 -43 60 -79 104 -81 98 -2 -5 7 -63 19
-128 11 -65 23 -130 25 -144 4 -20 -1 -28 -22 -38 -15 -6 -51 -28 -81 -48
l-55 -36 -81 44 c-119 63 -211 108 -215 104 -4 -4 77 -165 118 -235 l31 -53
-26 -36 c-15 -20 -40 -58 -57 -84 -35 -55 -22 -54 -188 -18 -179 38 -177 42
-34 -65 71 -53 130 -98 131 -99 2 -1 -2 -17 -8 -36 -5 -19 -16 -63 -23 -99
l-12 -65 -70 -23 c-126 -42 -269 -94 -277 -101 -4 -4 578 -7 1293 -7 1153 0
1296 1 1269 15 -17 8 -101 38 -187 66 l-156 53 -19 92 c-11 55 -15 95 -9 99
25 16 260 196 259 198 -1 1 -36 -5 -77 -13 -41 -8 -86 -17 -100 -20 -14 -2
-37 -7 -52 -10 -15 -3 -30 -5 -33 -5 -2 0 -18 -4 -34 -9 -29 -8 -32 -6 -86 75
-30 46 -55 86 -55 89 0 4 11 23 23 44 37 58 136 252 129 252 -8 0 -215 -105
-269 -137 -26 -15 -44 -20 -48 -14 -3 6 -37 29 -75 52 -56 33 -68 44 -65 62 2
12 6 47 10 77 4 30 8 62 10 70 1 8 5 47 9 85 l7 70 -82 -125 c-45 -69 -85
-129 -89 -134 -5 -5 -30 -3 -58 4 -64 15 -83 18 -107 19 -17 1 -27 23 -64 146
-24 79 -49 151 -55 160 -9 12 -17 -6 -43 -88z m-299 -189 c45 -63 46 -67 25
-73 -27 -9 -32 -3 -59 73 -13 34 -27 65 -31 68 -15 9 -10 -10 20 -84 30 -73
30 -82 -1 -82 -12 0 -18 7 -18 23 0 12 -6 49 -13 83 -9 42 -10 64 -2 71 13 14
17 9 79 -79z m714 0 c-31 -80 -34 -85 -56 -77 -22 8 -22 10 30 88 29 44 54 78
56 77 1 -2 -12 -41 -30 -88z m41 -17 c-6 -50 -15 -91 -18 -91 -4 0 -14 6 -23
13 -14 11 -12 21 15 95 16 45 32 81 34 78 2 -2 -1 -45 -8 -95z m-1351 -500
c46 -11 85 -21 88 -23 2 -3 -2 -12 -9 -22 -12 -17 -18 -15 -97 23 -47 22 -80
40 -75 40 6 0 47 -8 93 -18z m1897 -26 c-49 -24 -93 -44 -96 -45 -3 0 -11 11
-17 24 -10 23 -10 24 86 44 53 11 102 20 107 20 6 1 -30 -19 -80 -43z m80 9
c-59 -49 -147 -114 -155 -114 -5 0 -10 10 -12 23 -3 19 10 28 92 69 52 25 97
46 100 47 3 0 -8 -11 -25 -25z m-1997 -21 c42 -20 79 -38 80 -39 2 -1 1 -12
-3 -23 -5 -16 -10 -19 -23 -11 -28 15 -146 110 -138 110 4 0 42 -17 84 -37z"/>
</g>
</svg>
