<?xml version="1.0" encoding="utf-8"?>
<!-- Generator: Adobe Illustrator 16.0.4, SVG Export Plug-In . SVG Version: 6.00 Build 0)  -->
<!DOCTYPE svg PUBLIC "-//W3C//DTD SVG 1.1//EN" "http://www.w3.org/Graphics/SVG/1.1/DTD/svg11.dtd">
<svg version="1.1" id="Ebene_1" xmlns="http://www.w3.org/2000/svg" xmlns:xlink="http://www.w3.org/1999/xlink" x="0px" y="0px"
	 width="123.492px" height="251.055px" viewBox="0 0 123.492 251.055" enable-background="new 0 0 123.492 251.055"
	 xml:space="preserve">
<g>
	<defs>
		<rect id="SVGID_1_" width="123.492" height="251.055"/>
	</defs>
	<clipPath id="SVGID_2_">
		<use xlink:href="#SVGID_1_"  overflow="visible"/>
	</clipPath>
	<path clip-path="url(#SVGID_2_)" fill="none" stroke="#BFCFED" stroke-width="1.442" stroke-miterlimit="10" d="M0.721,161.987
		v-73.92c20.973,0,36.703,16.548,36.703,36.96S21.693,161.987,0.721,161.987z"/>
	<path clip-path="url(#SVGID_2_)" fill="none" stroke="#BFCFED" stroke-width="1.442" stroke-miterlimit="10" d="M59.969,138.949
		c15.578,2.138,61.324-13.919,61.324-13.919s-45.688-15.69-61.215-13.535c-6.067,0.842-21.547,11.603-21.547,11.603v4.239
		C38.531,127.337,53.924,138.12,59.969,138.949z"/>
	<path clip-path="url(#SVGID_2_)" fill="none" stroke="#BFCFED" stroke-width="1.442" stroke-miterlimit="10" d="M54.429,94.856
		c12.522-9.484,33.427-53.202,33.427-53.202S44.439,62.779,35.005,75.277c-3.688,4.884-6.978,23.462-6.978,23.462l3.01,3.012
		C31.037,101.751,49.57,98.537,54.429,94.856z"/>
	<path clip-path="url(#SVGID_2_)" fill="none" stroke="#BFCFED" stroke-width="1.442" stroke-miterlimit="10" d="M15.773,64.684
		C17.906,49.175,0.721,3.928,0.721,3.928v81.851h3.055C3.775,85.778,14.945,70.713,15.773,64.684z"/>
	<path clip-path="url(#SVGID_2_)" fill="none" stroke="#BFCFED" stroke-width="1.442" stroke-miterlimit="10" d="M54.429,156.174
		c12.521,9.484,33.427,53.201,33.427,53.201s-43.416-21.124-52.851-33.623c-3.688-4.884-6.978-23.462-6.978-23.462l3.01-3.011
		C31.037,149.279,49.57,152.492,54.429,156.174z"/>
	<path clip-path="url(#SVGID_2_)" fill="none" stroke="#BFCFED" stroke-width="1.442" stroke-miterlimit="10" d="M15.773,185.85
		c2.09,15.633-15.052,61.238-15.052,61.238v-82.812h3.053C3.774,164.276,14.955,179.715,15.773,185.85z"/>
	<path clip-path="url(#SVGID_2_)" fill="none" stroke="#BFCFED" stroke-width="1.442" stroke-miterlimit="10" d="M0.721,139.76
		v-29.465c6.846,0,14.475,6.596,14.475,14.731C15.195,133.163,7.566,139.76,0.721,139.76z"/>
</g>
<polygon fill="none" stroke="#BFCFED" stroke-width="1.442" stroke-miterlimit="10" points="40.082,62.888 41.893,54.156 
	50.288,13.673 25.389,46.62 20.026,53.714 20.639,54.246 26.024,47.168 47.426,19.059 14.93,90.645 15.623,90.964 48.123,19.367 
	41.012,53.963 39.217,62.69 "/>
<polygon fill="none" stroke="#BFCFED" stroke-width="1.442" stroke-miterlimit="10" points="72.686,142.763 80.178,147.574 
	114.914,169.879 73.885,164.557 65.045,163.412 65.098,162.607 73.941,163.723 109.059,168.152 35.167,141.243 35.428,140.53 
	109.334,167.441 79.694,148.335 72.214,143.515 "/>
<polygon fill="none" stroke="#BFCFED" stroke-width="1.442" stroke-miterlimit="10" points="40.082,189.305 41.893,198.037 
	50.288,238.521 25.389,205.574 20.026,198.479 20.639,197.947 26.024,205.024 47.426,233.134 14.93,161.548 15.623,161.229 
	48.123,232.826 41.012,198.23 39.217,189.503 "/>
<polygon fill="none" stroke="#BFCFED" stroke-width="1.442" stroke-miterlimit="10" points="73.185,109.146 80.458,104.01 
	114.178,80.197 73.426,87.3 64.646,88.827 64.734,89.631 73.519,88.132 108.404,82.179 35.773,112.292 36.066,112.994 
	108.711,82.878 79.941,103.27 72.681,108.414 "/>
<g>
</g>
<g>
</g>
<g>
</g>
<g>
</g>
<g>
</g>
<g>
</g>
<g>
</g>
<g>
</g>
<g>
</g>
<g>
</g>
<g>
</g>
<g>
</g>
<g>
</g>
<g>
</g>
<g>
</g>
</svg>
