<?xml version="1.0" encoding="utf-8"?>
<!-- Generator: Adobe Illustrator 16.0.4, SVG Export Plug-In . SVG Version: 6.00 Build 0)  -->
<!DOCTYPE svg PUBLIC "-//W3C//DTD SVG 1.1//EN" "http://www.w3.org/Graphics/SVG/1.1/DTD/svg11.dtd">
<svg version="1.1" id="Ebene_1" xmlns="http://www.w3.org/2000/svg" xmlns:xlink="http://www.w3.org/1999/xlink" x="0px" y="0px"
	 width="123.492px" height="251.055px" viewBox="0 0 123.492 251.055" enable-background="new 0 0 123.492 251.055"
	 xml:space="preserve">
<g>
	<defs>
		<rect id="SVGID_1_" width="123.492" height="251.055"/>
	</defs>
	<clipPath id="SVGID_2_">
		<use xlink:href="#SVGID_1_"  overflow="visible"/>
	</clipPath>
	<path clip-path="url(#SVGID_2_)" fill="none" stroke="#BFCFED" stroke-width="1.442" stroke-miterlimit="10" d="M122.771,161.987
		v-73.92c-20.973,0-36.703,16.548-36.703,36.96S101.799,161.987,122.771,161.987z"/>
	<path clip-path="url(#SVGID_2_)" fill="none" stroke="#BFCFED" stroke-width="1.442" stroke-miterlimit="10" d="M63.523,138.949
		C47.945,141.087,2.199,125.03,2.199,125.03s45.688-15.69,61.215-13.535c6.067,0.842,21.547,11.603,21.547,11.603v4.239
		C84.961,127.337,69.568,138.12,63.523,138.949z"/>
	<path clip-path="url(#SVGID_2_)" fill="none" stroke="#BFCFED" stroke-width="1.442" stroke-miterlimit="10" d="M69.063,94.856
		c-12.522-9.484-33.427-53.202-33.427-53.202s43.416,21.125,52.851,33.623c3.688,4.884,6.978,23.462,6.978,23.462l-3.01,3.012
		C92.455,101.751,73.922,98.537,69.063,94.856z"/>
	<path clip-path="url(#SVGID_2_)" fill="none" stroke="#BFCFED" stroke-width="1.442" stroke-miterlimit="10" d="M107.719,64.684
		c-2.133-15.509,15.053-60.756,15.053-60.756v81.851h-3.055C119.717,85.778,108.547,70.713,107.719,64.684z"/>
	<path clip-path="url(#SVGID_2_)" fill="none" stroke="#BFCFED" stroke-width="1.442" stroke-miterlimit="10" d="M69.063,156.174
		c-12.521,9.484-33.427,53.201-33.427,53.201s43.416-21.124,52.851-33.623c3.688-4.884,6.978-23.462,6.978-23.462l-3.01-3.011
		C92.455,149.279,73.922,152.492,69.063,156.174z"/>
	<path clip-path="url(#SVGID_2_)" fill="none" stroke="#BFCFED" stroke-width="1.442" stroke-miterlimit="10" d="M107.719,185.85
		c-2.09,15.633,15.052,61.238,15.052,61.238v-82.812h-3.053C119.718,164.276,108.537,179.715,107.719,185.85z"/>
	<path clip-path="url(#SVGID_2_)" fill="none" stroke="#BFCFED" stroke-width="1.442" stroke-miterlimit="10" d="M122.771,139.76
		v-29.465c-6.846,0-14.475,6.596-14.475,14.731C108.297,133.163,115.926,139.76,122.771,139.76z"/>
</g>
<polygon fill="none" stroke="#BFCFED" stroke-width="1.442" stroke-miterlimit="10" points="83.41,62.888 81.6,54.156 
	73.204,13.673 98.104,46.62 103.466,53.714 102.854,54.246 97.468,47.168 76.066,19.059 108.562,90.645 107.869,90.964 
	75.369,19.367 82.48,53.963 84.275,62.69 "/>
<polygon fill="none" stroke="#BFCFED" stroke-width="1.442" stroke-miterlimit="10" points="50.807,142.763 43.314,147.574 
	8.578,169.879 49.607,164.557 58.447,163.412 58.395,162.607 49.551,163.723 14.434,168.152 88.325,141.243 88.064,140.53 
	14.158,167.441 43.798,148.335 51.278,143.515 "/>
<polygon fill="none" stroke="#BFCFED" stroke-width="1.442" stroke-miterlimit="10" points="83.41,189.305 81.6,198.037 
	73.204,238.521 98.104,205.574 103.466,198.479 102.854,197.947 97.468,205.024 76.066,233.134 108.562,161.548 107.869,161.229 
	75.369,232.826 82.48,198.23 84.275,189.503 "/>
<polygon fill="none" stroke="#BFCFED" stroke-width="1.442" stroke-miterlimit="10" points="50.308,109.146 43.034,104.01 
	9.314,80.197 50.066,87.3 58.846,88.827 58.758,89.631 49.974,88.132 15.088,82.179 87.719,112.292 87.426,112.994 14.781,82.878 
	43.551,103.27 50.812,108.414 "/>
<g>
</g>
<g>
</g>
<g>
</g>
<g>
</g>
<g>
</g>
<g>
</g>
<g>
</g>
<g>
</g>
<g>
</g>
<g>
</g>
<g>
</g>
<g>
</g>
<g>
</g>
<g>
</g>
<g>
</g>
</svg>
