<?xml version="1.0" encoding="utf-8"?>
<!-- Generator: Adobe Illustrator 16.0.4, SVG Export Plug-In . SVG Version: 6.00 Build 0)  -->
<!DOCTYPE svg PUBLIC "-//W3C//DTD SVG 1.1//EN" "http://www.w3.org/Graphics/SVG/1.1/DTD/svg11.dtd">
<svg version="1.1" id="Ebene_1" xmlns="http://www.w3.org/2000/svg" xmlns:xlink="http://www.w3.org/1999/xlink" x="0px" y="0px"
	 width="369px" height="80px" viewBox="0 0 369 80" enable-background="new 0 0 369 80" xml:space="preserve">
<path fill-rule="evenodd" clip-rule="evenodd" d="M240.455,43.371c0.119,3.334,0.453,5.962,2.48,8.265
	c3.857,4.386,8.715,4.837,13.975,3.875c2.256-0.415,4.66-0.09,6.729-1.578c1.617-1.163,1.955-2.607,0.803-4.26
	c-0.422-0.607-0.525-1.457-0.705-2.212c-0.682-2.905-1.266-5.835-2.016-8.72c-1.021-3.92-2.188-7.803-3.223-11.721
	c-0.139-0.525,0.018-1.209,0.252-1.721c0.139-0.303,0.727-0.599,1.064-0.553c0.342,0.047,0.822,0.469,0.91,0.811
	c1.213,4.792,2.367,9.597,3.539,14.398c0.246,0.032,0.492,0.064,0.738,0.097c0.479-0.956,1.021-1.886,1.426-2.873
	c1.439-3.507,3.506-6.379,7.279-7.676c2.521-0.865,5.033-1.038,7.512,0.038c2.328,1.01,3.088,2.832,2.404,5.293
	c-0.943,3.405-3.873,5.01-6.322,7.047c-2.83,2.351-6.293,3.932-8.463,7.086c-1.047,1.521-0.877,2.643,0.945,2.806
	c5.291,0.47,10.609,0.624,15.916,0.89c0.215,0.01,0.438-0.119,0.895-0.254c-2.59-1.617-3.164-4.146-3.434-6.701
	c-0.275-2.606,0.893-4.781,2.393-6.9c1.678-2.367,3.713-4.187,6.299-5.428c2.623-1.258,5.379-0.854,7.248,1.123
	c0.428,0.453,0.836,1.055,0.957,1.648c1.002,4.911,0.914,9.645-2.541,13.744c-0.143,0.17-0.217,0.396-0.131,0.797
	c0.58-0.521,1.16-1.043,1.748-1.572c1.256,0.386,1.891,1.107,1.969,2.441c0.088,1.472,0.908,1.981,2.338,1.377
	c2.447-1.031,3.811-2.987,4.705-5.372c0.334-0.891,0.727-1.758,1.08-2.642c0.947-2.368,1.33-4.695,0.83-7.336
	c-0.672-3.561-0.834-7.227-1.049-10.857c-0.076-1.321-0.252-1.924-1.785-1.883c-4.512,0.122-9.029,0.049-13.543,0.103
	c-1.213,0.015-2.102-0.309-1.895-1.667c0.207-1.354,1.227-1.508,2.453-1.401c4.762,0.413,9.531,0.748,14.299,1.103
	c0.098,0.008,0.203-0.104,0.652-0.352c0-1.709-0.047-3.613,0.02-5.514c0.037-1.072,0.236-2.141,0.398-3.205
	c0.262-1.704,1.1-2.617,2.791-2.107c0.219,3.457,0.482,6.844,0.619,10.236c0.041,1.029,0.312,1.41,1.369,1.619
	c4.158,0.825,8.287,1.784,12.422,2.713c0.373,0.084,0.715,0.311,1.068,0.471c-0.031,0.152-0.066,0.305-0.1,0.457
	c-4.787-0.767-9.572-1.533-14.586-2.336c-0.158,1.777-0.234,3.314-0.439,4.834c-0.973,7.154,0.686,13.783,4.037,20.045
	c1.559,2.908,3.338,3.436,6.428,2.18c4.621-1.877,7.916-6.605,7.516-11.573c-0.311-3.86-1.363-7.654-1.842-11.509
	c-0.574-4.621-0.891-9.275-1.314-13.916c-0.012-0.119-0.043-0.276,0.016-0.354c0.594-0.786,1.207-1.559,1.812-2.335
	c0.486,0.856,1.352,1.697,1.387,2.572c0.086,2.138-0.469,4.312-0.297,6.433c0.297,3.675,0.902,7.33,1.471,10.979
	c0.346,2.229,0.865,4.431,1.342,6.822c0.955-1.142,1.697-2.223,2.627-3.104c4.107-3.89,10.803-2.629,13.193,2.399
	c1.699,3.572,2.584,7.533,3.807,11.329c0.164,0.507,0.189,1.062,0.252,1.597c0.406,3.419,1.984,5.605,5.711,5.897
	c1.365,0.106,2.691,0.72,4.035,1.102c-0.027,0.271-0.053,0.542-0.08,0.813c-1.355,0-2.744,0.188-4.059-0.046
	c-1.99-0.354-4.09-0.706-5.828-1.646c-0.965-0.522-1.539-2.17-1.848-3.42c-0.57-2.316-0.678-4.744-1.23-7.066
	c-0.695-2.927-1.326-5.933-3.514-8.238c-3.902-4.113-8.836-3.097-11.164,2.484c-0.811,1.939-1.035,4.148-1.357,6.26
	c-0.34,2.229-0.475,4.488-0.686,6.588c-0.98,0.193-1.686,0.333-2.594,0.512c-1.551-1.248,0.332-2.979-0.113-4.25
	c-1.877,1.262-3.611,2.715-5.586,3.678c-2.199,1.072-4.65,1.025-7.041,0.41c-1.77-0.455-2.578-1.912-3.254-3.367
	c-1.045-2.248-1.914-4.577-3.006-7.229c-0.531,1.656-0.904,3.002-1.396,4.301c-0.955,2.521-2,5.092-4.395,6.545
	c-1.35,0.818-3.088,1.462-4.607,1.379c-1.088-0.061-2.104-1.458-2.971-2.12c-3.129,0-6.244-0.036-9.355,0.018
	c-1.182,0.021-2.365,0.386-3.541,0.357c-5.262-0.129-10.518-0.328-15.775-0.53c-1.879-0.072-3.518-0.199-5.182,1.415
	c-1.285,1.248-3.49,1.828-5.377,2.122c-5.779,0.906-11.652,1.553-16.598-2.649c-2.443-2.077-3.732-4.91-4.365-8.073
	c-0.686-3.43-0.141-6.75,1.139-9.859c0.533-1.298,1.971-2.469,3.279-3.147c2.096-1.085,4.369-2.104,6.67-2.448
	c4.57-0.682,6.6,1.954,6.385,6.236c-0.289,5.77-2.637,7.119-8.332,8.377C244.48,46.359,242.537,45.579,240.455,43.371z
	 M298.33,41.039c-0.018-0.185-0.043-0.543-0.086-0.899c-0.523-4.479-3.385-5.885-7.086-3.182c-1.729,1.262-3.053,3.158-4.322,4.937
	c-1.33,1.863-1.207,4.071-0.723,6.217c0.406,1.799,3.688,3.901,5.199,3.247C294.789,49.854,298.449,45.948,298.33,41.039z
	 M266.967,47.161c2.922-1.963,5.816-3.644,8.389-5.725c2.01-1.627,3.777-3.631,5.354-5.696c1.352-1.772,0.723-4.193-1.029-4.654
	c-2.092-0.55-4.168-0.501-6.236,0.548C268.564,34.111,265.994,41.924,266.967,47.161z M246.238,43.245
	c0.072,0.149,0.143,0.299,0.217,0.447c1.828-0.932,3.783-1.681,5.445-2.848c1.492-1.047,1.752-4.311,0.811-5.821
	c-0.994-1.594-3.477-2.405-5.418-1.476c-1.465,0.703-2.785,1.747-4.082,2.754c-1.426,1.109-1.951,2.622-1.141,4.309
	C242.883,42.302,244.307,43.219,246.238,43.245z"/>
<path fill-rule="evenodd" clip-rule="evenodd" d="M15.07,31.294c-0.77,0.604-1.131,0.934-1.536,1.197
	c-2.856,1.851-3.654,3.932-3.222,7.313c0.745,5.813,4.531,9.367,9.065,12.244c4.674,2.966,9.938,3.771,15.382,3.073
	c3.82-0.49,6.08-2.59,6.07-5.682c-0.004-1.354-0.383-2.99-1.203-4.001c-2.321-2.859-4.99-5.433-7.465-8.173
	c-1.838-2.036-3.815-4.003-5.322-6.271c-2.563-3.86-1.596-7.763,2.096-10.977c2.876-2.503,6.396-3.17,9.908-3.602
	c1.315-0.162,3.048,0.664,4.144,1.577c3.685,3.067,3.29,10.157-0.535,12.135c-0.565,0.292-1.273,0.306-1.916,0.449
	c-0.058-0.142-0.114-0.283-0.171-0.425c0.238-0.211,0.455-0.453,0.717-0.629c3.234-2.153,4.002-6.379,1.511-9.411
	c-0.718-0.875-1.964-1.651-3.065-1.813c-4.357-0.64-9.725,2.688-11.521,6.685c-1.164,2.591-0.446,4.887,1.259,6.626
	c3.225,3.286,6.776,6.25,10.1,9.496c0.173-1.029,1.361-1.054,2.732-0.824c2.809,0.471,5.631,0.862,8.492,1.293
	c-0.748-3.786-1.502-7.457-2.189-11.142c-0.373-1.996-0.671-4.008-0.927-6.022c-0.118-0.926-0.293-2.216,1.049-2.182
	c0.561,0.014,1.44,1.159,1.575,1.899c0.762,4.167,1.331,8.37,1.994,12.556c0.111,0.703,0.321,1.396,0.555,2.07
	c1.309,3.777,1.316,3.773,5.369,4.487c0.755-1.255,0.751-2.456,0.133-3.856c-0.288-0.653-0.063-1.732,0.318-2.393
	c0.173-0.299,1.294-0.051,2.304-0.051c1.538-2.26,3.782-4.303,6.872-5.322c3.691-1.218,6.472,0.26,6.674,3.988
	c0.164,2.992-0.248,5.943-3.175,7.895c-2.474,1.648-5.024,1.396-7.655,0.809c-0.74-0.166-1.438-0.523-2.172-0.799
	c-0.558,3.973,1.197,7.252,5.28,9.479c1.87,1.021,4.171,1.616,6.305,1.7c3.251,0.129,6.526-0.357,9.794-0.566
	c0.321-0.021,0.649,0.062,0.975,0.096c0.057,0.17,0.113,0.341,0.17,0.511c-1.171,0.585-2.283,1.441-3.522,1.705
	c-5.237,1.113-10.426,0.486-15.344-1.429c-3.38-1.314-5.37-4.331-6.091-7.758c-0.466-2.216-1.471-2.713-3.355-2.594
	c-0.344,0.021-0.688,0.003-1.053,0.003c0.443,3.269,0.893,6.387,1.275,9.513c0.086,0.699,0.166,1.564-0.162,2.102
	c-0.314,0.516-1.165,0.705-1.779,1.036c-0.121-0.505-0.284-1.007-0.35-1.519c-0.105-0.822-0.09-1.663-0.225-2.478
	c-0.412-2.476-0.866-4.942-1.313-7.411c-0.255-1.396-0.845-2.339-2.506-2.404c-2.901-0.116-5.797-0.4-9.253-0.655
	c0.624,1.021,0.867,1.526,1.207,1.956c3.574,4.529,2.352,10.766-4.37,12.117c-9.28,1.863-17.512-0.623-24.102-7.738
	c-3.523-3.803-5.033-8.203-4.109-13.338C9.27,33.153,12.066,30.944,15.07,31.294z M66.63,42.457c3.11-0.015,4.748-1.665,5.308-5.349
	c0.388-2.551-1.292-4.057-3.647-2.997c-1.632,0.733-3.176,1.863-4.446,3.131c-0.842,0.84-1.774,2.411-1.521,3.345
	c0.449,1.658,2.436,1.595,3.947,1.873C66.387,42.48,66.51,42.463,66.63,42.457z"/>
<path fill-rule="evenodd" clip-rule="evenodd" d="M86.875,46.894c0.691,3.093,1.251,5.642,1.833,8.186
	c1.081,4.719,2.164,9.436,3.274,14.146c0.191,0.812,0.631,1.572,0.766,2.387c0.123,0.75-0.012,1.541-0.032,2.254
	c-2.685-0.273-2.885-1.878-3.249-3.674c-1.545-7.617-3.238-15.205-4.981-22.781c-0.12-0.519-1.089-1.195-1.663-1.195
	c-2.303-0.004-4.607,0.217-6.908,0.381c-0.68,0.049-1.354,0.179-2.03,0.271c-0.144-0.195-0.288-0.391-0.434-0.584
	c0.495-0.566,0.887-1.318,1.505-1.664c2.031-1.139,4.242-1.088,6.476-0.688c0.635,0.112,1.293,0.095,2.267,0.158
	c-0.762-2.822-1.438-5.51-2.215-8.169c-1.502-5.157-3.023-10.317-3.074-15.741c-0.036-3.762,0.402-7.443,3.355-10.262
	c1.938-1.85,3.836-1.624,5.429,0.499c3.987,5.318,6.177,11.373,6.88,17.884c0.418,3.881,0.024,7.785-3.045,10.856
	c-1.098,1.098-2.284,1.316-4.046,1.173c0.438-0.668,0.617-1.227,0.999-1.481c3.308-2.202,4.312-5.595,4.298-9.194
	c-0.025-6.188-1.845-11.88-5.8-16.77c-1.34-1.654-2.544-1.631-3.655,0.215c-1.875,3.116-2.306,6.628-1.69,10.074
	c0.922,5.166,2.298,10.252,3.481,15.371c0.147,0.641,0.314,1.275,0.452,1.918c0.81,3.812,2.533,5.48,6.404,6.176
	c0.408,0.071,0.824,0.098,1.324,0.154c0.102-1.677,0.161-3.328,0.312-4.97c0.293-3.198,1.601-5.983,3.681-8.389
	c1.195-1.383,2.402-2.81,3.833-3.926c2.385-1.86,5.215-1.836,7.876-0.809c2.114,0.817,2.544,3.054,2.854,5.036
	c0.266,1.693-0.064,3.48,0.218,5.169c0.819,4.905,1.89,9.743,6.337,12.894c1.021,0.724,1.933,1.637,3.026,2.207
	c0.704,0.367,1.661,0.219,2.482,0.403c0.42,0.095,0.788,0.417,1.286,0.697c-1.4,1.358-2.59,1.605-4.254,0.987
	c-4.262-1.582-6.966-4.859-9.633-8.33c-2.96,4.536-7.389,5.479-12.315,5.238c-1.482-0.074-2.672-0.719-3.418-1.971
	C93.262,47.985,89.902,48.399,86.875,46.894z M105.281,45.516c0.426-0.247,0.711-0.345,0.901-0.536
	c2.85-2.862,3.687-6.368,2.937-10.213c-0.267-1.359-0.364-3.339-2.192-3.54c-1.506-0.165-3.333,0.005-4.604,0.743
	c-4.656,2.701-7.505,9.579-6.509,14.936c0.516,2.779,2.301,4.098,5.147,3.764c1.005-0.119,1.997-0.349,3.002-0.475
	c1.726-0.215,2.273-0.568,3.203-2.224c-0.451,0.146-0.903,0.188-1.227,0.415c-1.226,0.856-2.107,0.314-2.527-0.803
	c-0.577-1.541-0.977-3.166-1.261-4.789c-0.074-0.424,0.558-0.971,0.865-1.462c0.455,0.392,1.09,0.696,1.326,1.189
	C104.767,43.411,104.953,44.414,105.281,45.516z"/>
<path fill-rule="evenodd" clip-rule="evenodd" d="M153.194,37.719c-2.108,3.956-1.097,9.438,2.346,12.372
	c0.913,0.779,1.795,1.659,2.841,2.204c1.657,0.862,3.385,1.827,5.186,2.122c2.521,0.415,5.136,0.275,7.711,0.338
	c2.127,0.049,4.256,0.019,6.382,0.092c0.49,0.018,0.97,0.316,1.454,0.486c-0.41,0.383-0.78,1.033-1.238,1.102
	c-1.712,0.26-3.452,0.437-5.184,0.448c-4.654,0.034-9.318,0.163-13.832-1.38c-5.757-1.967-10.135-8.855-9.042-15.236
	c0.247-1.446,2.282-2.737,0.679-4.312c-1.134-1.113-2.738-1.741-3.893-2.839c-2.715-2.586-5.772-5.01-6.388-9.047
	c-0.089-0.583,0.668-1.295,1.034-1.946c0.494,0.426,1.24,0.757,1.443,1.293c1.865,4.915,4.799,8.423,9.014,10.755
	c1.559-1.582,2.877-3.366,4.608-4.541c1.517-1.029,3.452-1.695,5.282-1.957c4.539-0.65,6.192,2.234,5.851,6.431
	c-0.325,3.995-3.143,5.991-7.164,5.372C157.94,39.114,155.66,38.345,153.194,37.719z M160.254,37.682
	c1.088-0.288,1.986-0.398,2.769-0.76c1.886-0.872,2.744-3.094,2.162-5.293c-0.406-1.534-1.756-2.274-4.022-2.056
	c-3.192,0.309-5.337,2.165-6.733,4.92c-0.166,0.327,0.211,1.314,0.551,1.448C156.732,36.631,158.554,37.141,160.254,37.682z"/>
<path fill-rule="evenodd" clip-rule="evenodd" d="M205.861,22.742c1.094,3.067,2.164,5.784,3.02,8.567
	c0.486,1.583,0.65,3.268,0.906,4.915c0.166,1.071,0.104,2.187-1.281,2.312c-1.521,0.138-1.334-1.224-1.549-2.133
	c-0.682-2.895-1.24-5.818-2.006-8.689c-0.412-1.55-0.99-3.104-1.791-4.483c-0.541-0.932-1.475-1.896-2.449-2.266
	c-3.178-1.201-4.996-4.645-4.611-8.097c0.061-0.536,0.67-1.335,1.133-1.42c0.562-0.104,1.471,0.245,1.828,0.708
	c1.488,1.927,2.775,4.011,4.248,5.952c0.654,0.864,1.451,1.914,2.396,2.219c6.693,2.158,13.584,3.278,20.627,3.016
	c4.508-0.168,9.01-0.578,13.5-1.014c1.641-0.16,3.244-0.706,4.85-1.072c-0.096-0.726-0.168-1.276-0.281-2.138
	c0.85,0.192,1.547,0.186,2.033,0.503c0.545,0.357,1.154,0.961,1.26,1.543c0.086,0.472-0.41,1.33-0.875,1.56
	c-1.156,0.571-2.42,1.16-3.676,1.247c-5.24,0.366-10.502,0.897-15.734,0.711c-6.494-0.232-12.967-1.114-19.449-1.718
	C207.32,22.905,206.684,22.83,205.861,22.742z"/>
<path fill-rule="evenodd" clip-rule="evenodd" d="M119.735,42.803c0.795-2.074,1.163-3.978,2.163-5.454
	c2.369-3.502,7.001-3.535,10.098-0.258c3.588,3.797,4.855,8.536,5.605,13.543c0.279,1.863-0.158,4.175,2.162,5.289
	c0.135,0.066,0.204,0.658,0.076,0.799c-0.25,0.275-0.817,0.654-0.979,0.554c-1.048-0.655-2.465-1.226-2.917-2.21
	c-0.669-1.461-0.648-3.242-0.902-4.889c-0.66-4.263-1.946-8.238-5.035-11.439c-2.476-2.567-6.549-2.369-7.592,2.033
	c-0.805,3.403-0.213,6.603,0.735,9.838c0.243,0.831,1.132,2.18-0.976,2.088c-0.328-0.015-0.684,0.56-1.183,0.999
	c-0.212-0.41-0.423-0.722-0.543-1.066c-1.019-2.923-2.009-5.854-3.031-8.772c-1.039-2.969-2.163-5.906-3.107-8.902
	c-0.175-0.553,0.175-1.777,0.544-1.9c1.191-0.393,1.099,0.777,1.398,1.513C117.344,37.253,118.504,39.91,119.735,42.803z"/>
<path fill-rule="evenodd" clip-rule="evenodd" d="M232.488,25.638c0.15,0.752,0.463,1.514,0.422,2.255
	c-0.18,3.275-0.707,6.55-0.645,9.817c0.084,4.524,0.506,9.049,0.959,13.557c0.119,1.184,0.938,2.285,1.328,3.46
	c0.162,0.485,0.045,1.062,0.053,1.599c-0.51-0.02-1.238,0.168-1.488-0.096c-0.795-0.84-1.74-1.752-2.047-2.805
	c-1.771-6.109-1.928-12.387-1.4-18.672c0.209-2.475,0.852-4.918,1.381-7.358c0.137-0.634,0.592-1.2,0.9-1.798
	C232.131,25.61,232.309,25.624,232.488,25.638z"/>
<path fill-rule="evenodd" clip-rule="evenodd" d="M147.515,58.224c-0.809-0.767-1.535-1.125-1.676-1.643
	c-0.695-2.574-1.213-5.194-1.839-7.787c-0.587-2.43-1.233-4.846-1.847-7.269c-0.117-0.463-0.381-0.989-0.258-1.388
	c0.188-0.609,0.654-1.132,1.003-1.691c0.51,0.397,1.349,0.71,1.478,1.206c0.939,3.616,1.75,7.267,2.57,10.913
	c0.247,1.097,0.368,2.222,0.616,3.317c0.063,0.281,0.402,0.493,0.6,0.749c0.356,0.459,1.081,1.056,0.976,1.367
	C148.9,56.704,148.251,57.271,147.515,58.224z"/>
<g>
</g>
<g>
</g>
<g>
</g>
<g>
</g>
<g>
</g>
<g>
</g>
<g>
</g>
<g>
</g>
<g>
</g>
<g>
</g>
<g>
</g>
<g>
</g>
<g>
</g>
<g>
</g>
<g>
</g>
</svg>
