<?xml version="1.0" encoding="utf-8"?>
<!-- Generator: Adobe Illustrator 16.0.4, SVG Export Plug-In . SVG Version: 6.00 Build 0)  -->
<!DOCTYPE svg PUBLIC "-//W3C//DTD SVG 1.1//EN" "http://www.w3.org/Graphics/SVG/1.1/DTD/svg11.dtd">
<svg version="1.1" id="Ebene_1" xmlns="http://www.w3.org/2000/svg" xmlns:xlink="http://www.w3.org/1999/xlink" x="0px" y="0px"
	 width="315px" height="315px" viewBox="0 0 315 315" enable-background="new 0 0 315 315" xml:space="preserve">
<g>
	<path fill="#1D1D1B" d="M157.674,5.768C73.439,5.768,5.153,74.049,5.153,158.282c0,84.231,68.286,152.517,152.521,152.517
		c84.231,0,152.512-68.285,152.512-152.517C310.187,74.049,241.905,5.768,157.674,5.768z M193.351,158.282v80.901h-12.274
		l-23.178-50.336l-23.634,50.336h-12.275v-80.901V77.381h12.275l23.634,50.335l23.178-50.335h12.274V158.282z"/>
	<polygon fill="#1D1D1B" points="153.35,143.624 134.264,104.197 134.264,158.282 134.264,212.365 153.35,172.941 162.441,172.941 
		181.076,212.365 181.076,158.282 181.076,104.197 162.441,143.624 	"/>
</g>
</svg>
