<?xml version="1.0" encoding="utf-8"?>
<!-- Generator: Adobe Illustrator 16.0.4, SVG Export Plug-In . SVG Version: 6.00 Build 0)  -->
<!DOCTYPE svg PUBLIC "-//W3C//DTD SVG 1.1//EN" "http://www.w3.org/Graphics/SVG/1.1/DTD/svg11.dtd">
<svg version="1.1" id="Ebene_1" xmlns="http://www.w3.org/2000/svg" xmlns:xlink="http://www.w3.org/1999/xlink" x="0px" y="0px"
	 width="283px" height="266.5px" viewBox="0 0 283 266.5" enable-background="new 0 0 283 266.5" xml:space="preserve">
<g>
	<defs>
		<rect id="SVGID_1_" x="11" y="10.124" width="263.141" height="245.876"/>
	</defs>
	<clipPath id="SVGID_2_">
		<use xlink:href="#SVGID_1_"  overflow="visible"/>
	</clipPath>
	<path clip-path="url(#SVGID_2_)" fill="#BECEEC" d="M236.071,136.216H48.014c0-52.076,42.098-94.029,94.028-94.029
		C193.973,42.187,236.071,84.14,236.071,136.216"/>
	<path clip-path="url(#SVGID_2_)" fill="#FCF4B1" d="M179.88,137.417h-75.675c0-21.622,16.941-37.839,37.837-37.839
		C162.939,99.578,179.88,115.795,179.88,137.417"/>
	<path clip-path="url(#SVGID_2_)" fill="none" stroke="#1C1463" stroke-width="2.402" stroke-miterlimit="10" d="M179.88,137.417
		h-75.675c0-21.622,16.941-37.839,37.837-37.839C162.939,99.578,179.88,115.795,179.88,137.417z"/>
	<path clip-path="url(#SVGID_2_)" fill="#FCF4B1" d="M156.455,76.906c2.215-16.039-14.413-63.139-14.413-63.139
		s-16.248,47.04-14.016,63.025c0.872,6.247,12.015,22.186,12.015,22.186h4.39C144.432,98.979,155.597,83.131,156.455,76.906"/>
	<path clip-path="url(#SVGID_2_)" fill="none" stroke="#1C1463" stroke-width="2.402" stroke-miterlimit="10" d="M156.455,76.906
		c2.215-16.039-14.413-63.139-14.413-63.139s-16.248,47.04-14.016,63.025c0.872,6.247,12.015,22.186,12.015,22.186h4.39
		C144.432,98.979,155.597,83.131,156.455,76.906z"/>
	<path clip-path="url(#SVGID_2_)" fill="#FCF4B1" d="M111.555,82.463c-9.775-12.907-54.837-34.455-54.837-34.455
		s21.774,44.751,34.656,54.478c5.035,3.8,24.183,7.19,24.183,7.19l3.104-3.103C118.661,106.573,115.349,87.472,111.555,82.463"/>
	<path clip-path="url(#SVGID_2_)" fill="none" stroke="#1C1463" stroke-width="2.402" stroke-miterlimit="10" d="M111.555,82.463
		c-9.775-12.907-54.837-34.455-54.837-34.455s21.774,44.751,34.656,54.478c5.035,3.8,24.183,7.19,24.183,7.19l3.104-3.103
		C118.661,106.573,115.349,87.472,111.555,82.463z"/>
	<path clip-path="url(#SVGID_2_)" fill="#FCF4B1" d="M80.514,121.595c-16.094-2.242-63.046,15.822-63.046,15.822h84.935v-3.209
		C102.403,134.208,86.77,122.467,80.514,121.595"/>
	<path clip-path="url(#SVGID_2_)" fill="none" stroke="#1C1463" stroke-width="2.402" stroke-miterlimit="10" d="M80.514,121.595
		c-16.094-2.242-63.046,15.822-63.046,15.822h84.935v-3.209C102.403,134.208,86.77,122.467,80.514,121.595z"/>
	<path clip-path="url(#SVGID_2_)" fill="#FCF4B1" d="M173.521,82.463c9.777-12.906,54.839-34.455,54.839-34.455
		s-21.775,44.751-34.657,54.478c-5.035,3.8-24.184,7.19-24.184,7.19l-3.104-3.103C166.416,106.573,169.729,87.472,173.521,82.463"/>
	<path clip-path="url(#SVGID_2_)" fill="none" stroke="#1C1463" stroke-width="2.402" stroke-miterlimit="10" d="M173.521,82.463
		c9.777-12.906,54.839-34.455,54.839-34.455s-21.775,44.751-34.657,54.478c-5.035,3.8-24.184,7.19-24.184,7.19l-3.104-3.103
		C166.416,106.573,169.729,87.472,173.521,82.463z"/>
	<path clip-path="url(#SVGID_2_)" fill="#FCF4B1" d="M204.067,121.595c16.222-2.196,63.543,15.822,63.543,15.822h-85.929v-3.209
		C181.682,134.208,197.701,122.456,204.067,121.595"/>
	<path clip-path="url(#SVGID_2_)" fill="none" stroke="#1C1463" stroke-width="2.402" stroke-miterlimit="10" d="M204.067,121.595
		c16.222-2.196,63.543,15.822,63.543,15.822h-85.929v-3.209C181.682,134.208,197.701,122.456,204.067,121.595z"/>
	<path clip-path="url(#SVGID_2_)" fill="#F4EC87" d="M157.283,137.417h-30.48c0-7.207,6.823-15.24,15.24-15.24
		C150.459,122.177,157.283,130.21,157.283,137.417"/>
	<path clip-path="url(#SVGID_2_)" fill="none" stroke="#1C1463" stroke-width="2.402" stroke-miterlimit="10" d="M157.283,137.417
		h-30.48c0-7.207,6.823-15.24,15.24-15.24C150.459,122.177,157.283,130.21,157.283,137.417z"/>
</g>
<polygon points="78.694,96.887 69.654,95.003 27.738,86.269 61.851,112.173 69.196,117.753 69.747,117.116 62.418,111.513 
	33.315,89.247 107.434,123.055 107.764,122.334 33.634,88.521 69.454,95.919 78.489,97.787 "/>
<polygon fill="none" stroke="#1C1463" stroke-width="0.601" stroke-miterlimit="10" points="78.694,96.887 69.654,95.003 
	27.738,86.269 61.851,112.173 69.196,117.753 69.747,117.116 62.418,111.513 33.315,89.247 107.434,123.055 107.764,122.334 
	33.634,88.521 69.454,95.919 78.489,97.787 "/>
<polygon points="159.795,63.637 164.809,55.882 188.051,19.925 182.506,62.396 181.312,71.546 180.475,71.49 181.637,62.337 
	186.252,25.986 158.213,102.473 157.469,102.203 185.512,25.7 165.602,56.381 160.579,64.125 "/>
<polygon fill="none" stroke="#1C1463" stroke-width="0.601" stroke-miterlimit="10" points="159.795,63.637 164.809,55.882 
	188.051,19.925 182.506,62.396 181.312,71.546 180.475,71.49 181.637,62.337 186.252,25.986 158.213,102.473 157.469,102.203 
	185.512,25.7 165.602,56.381 160.579,64.125 "/>
<polygon points="207.564,96.887 216.605,95.003 258.521,86.269 224.409,112.173 217.062,117.753 216.514,117.116 223.842,111.513 
	252.944,89.247 178.827,123.055 178.496,122.334 252.625,88.521 216.807,95.919 207.77,97.787 "/>
<polygon fill="none" stroke="#1C1463" stroke-width="0.601" stroke-miterlimit="10" points="207.564,96.887 216.605,95.003 
	258.521,86.269 224.409,112.173 217.062,117.753 216.514,117.116 223.842,111.513 252.944,89.247 178.827,123.055 178.496,122.334 
	252.625,88.521 216.807,95.919 207.77,97.787 "/>
<g>
	<defs>
		<rect id="SVGID_3_" x="11" y="10.124" width="263.141" height="245.876"/>
	</defs>
	<clipPath id="SVGID_4_">
		<use xlink:href="#SVGID_3_"  overflow="visible"/>
	</clipPath>
	<path clip-path="url(#SVGID_4_)" fill="#1C1463" d="M232.742,256v-23.053h28.623V256h4.794c0-1.645,0.011-3.807,0.035-6.486
		c0.022-2.679,0.034-5.604,0.034-8.776c0-3.173,0.012-6.486,0.035-9.941c0.024-3.454,0.037-6.768,0.037-9.939v-8.742v-6.451h-4.936
		v22.701h-28.623v-22.701h-4.865V256H232.742z M186.001,205.663v4.583h13.255V256h4.864v-45.754h13.396v-4.583H186.001z
		 M164.286,214.722c0.142-0.445,0.258-0.856,0.353-1.232c0.095,0.376,0.211,0.787,0.353,1.232c0.142,0.447,0.258,0.766,0.353,0.952
		c0.94,2.21,2.045,4.912,3.313,8.108c1.269,3.195,2.608,6.556,4.019,10.081h-16.074c1.363-3.525,2.69-6.886,3.983-10.081
		c1.292-3.196,2.408-5.898,3.349-8.108C164.028,215.487,164.145,215.169,164.286,214.722 M186.424,256
		c-0.752-1.692-1.705-3.936-2.855-6.733c-1.152-2.796-2.409-5.861-3.771-9.199c-1.363-3.337-2.785-6.804-4.266-10.399
		c-1.48-3.595-2.902-7.061-4.266-10.398c-1.363-3.337-2.633-6.392-3.807-9.164c-1.175-2.773-2.115-5.029-2.82-6.769
		c-0.752,1.739-1.703,3.995-2.854,6.769c-1.153,2.772-2.409,5.827-3.772,9.164c-1.363,3.338-2.773,6.804-4.229,10.398
		c-1.457,3.596-2.867,7.062-4.229,10.399c-1.365,3.338-2.634,6.403-3.808,9.199c-1.175,2.798-2.115,5.041-2.82,6.733h4.793
		c0.94-2.161,2.045-4.817,3.313-7.966c1.269-3.149,2.585-6.486,3.948-10.011h19.316c1.363,3.524,2.68,6.861,3.948,10.011
		c1.269,3.148,2.373,5.805,3.313,7.966H186.424z M141.868,256c-3.901-5.029-7.661-9.928-11.28-14.699
		c-3.619-4.77-7.402-9.67-11.35-14.699c3.478-3.478,6.932-6.968,10.363-10.47c3.431-3.501,6.862-6.99,10.293-10.469h-6.204
		c-3.76,3.572-7.449,7.215-11.068,10.928c-3.62,3.713-7.309,7.332-11.069,10.857c-0.235,0.329-0.458,0.61-0.669,0.846
		c-0.212,0.235-0.435,0.517-0.67,0.846c0.046-0.423,0.094-0.821,0.141-1.198c0.046-0.376,0.07-0.751,0.07-1.128v-21.15h-5.287V256
		h5.287c0-3.666-0.012-7.202-0.035-10.61c-0.024-3.406-0.035-6.944-0.035-10.609c0.892-0.799,1.762-1.599,2.608-2.397
		c0.846-0.799,1.692-1.622,2.538-2.468c3.525,4.512,6.909,8.872,10.152,13.078c3.243,4.207,6.627,8.542,10.152,13.007H141.868z
		 M94.775,256v-4.512H66.857v-18.541h24.111v-4.513H66.857v-18.4h26.931v-4.371H62.063V256H94.775z M17.986,200.308v5.07H32.65V256
		h5.382v-50.622h14.82v-5.07H17.986z"/>
	<path clip-path="url(#SVGID_4_)" fill="#1C1463" d="M262.25,172.551c-0.986,0.392-1.986,0.798-3.002,1.218
		c-1.016,0.421-2.029,0.834-3.045,1.239c-1.016,0.407-1.973,0.798-2.871,1.175c-0.086-0.348-0.131-0.754-0.131-1.218
		c0-0.898,0.174-1.747,0.522-2.545c0.349-0.797,0.827-1.501,1.437-2.11c0.608-0.608,1.318-1.094,2.131-1.457
		c0.812-0.361,1.682-0.544,2.609-0.544c1.103,0,2.104,0.283,3.002,0.85c0.898,0.564,1.594,1.341,2.088,2.327
		C264.148,171.804,263.236,172.159,262.25,172.551 M264.686,179.967c-0.58,0.552-1.29,0.987-2.131,1.306
		c-0.842,0.319-1.727,0.479-2.654,0.479c-1.392,0-2.631-0.362-3.719-1.088c-1.087-0.724-1.893-1.681-2.414-2.871
		c1.072-0.435,2.232-0.906,3.48-1.413c1.246-0.507,2.5-1.015,3.763-1.522c1.261-0.508,2.493-1,3.696-1.479
		c1.203-0.478,2.299-0.906,3.285-1.283c-0.668-1.798-1.705-3.276-3.11-4.437c-1.407-1.16-3.067-1.74-4.981-1.74
		c-1.246,0-2.421,0.239-3.522,0.718c-1.103,0.479-2.066,1.131-2.894,1.957c-0.826,0.827-1.479,1.799-1.957,2.915
		s-0.718,2.298-0.718,3.545s0.239,2.422,0.718,3.523c0.479,1.103,1.131,2.06,1.957,2.871c0.827,0.812,1.799,1.458,2.916,1.936
		c1.115,0.479,2.312,0.718,3.588,0.718c1.217,0,2.393-0.217,3.523-0.652s2.116-1.029,2.958-1.783L264.686,179.967z M246.156,166.352
		h-2.394v17.4h2.394V166.352z M243.785,161.306c0.361,0.319,0.761,0.479,1.195,0.479c0.436,0,0.827-0.159,1.176-0.479
		c0.348-0.318,0.521-0.739,0.521-1.262c0-0.492-0.174-0.906-0.521-1.239c-0.349-0.333-0.74-0.501-1.176-0.501
		c-0.435,0-0.834,0.168-1.195,0.501c-0.363,0.333-0.545,0.747-0.545,1.239C243.24,160.566,243.422,160.987,243.785,161.306
		 M238.391,171.376c-0.449-1.116-1.072-2.073-1.87-2.871c-0.798-0.797-1.739-1.42-2.827-1.87s-2.283-0.675-3.589-0.675
		c-1.683,0-3.132,0.407-4.35,1.218c-1.218,0.813-2.103,1.755-2.654,2.828c0-0.29-0.007-0.623-0.022-1.001
		c-0.015-0.376-0.021-0.746-0.021-1.108s-0.008-0.688-0.022-0.979c-0.015-0.289-0.021-0.478-0.021-0.565h-2.305v25.752h2.392
		v-10.179c0-0.318-0.007-0.616-0.022-0.892c-0.015-0.275-0.021-0.559-0.021-0.849c0.492,1.103,1.37,2.03,2.631,2.784
		c1.263,0.754,2.704,1.131,4.329,1.131c1.305,0,2.508-0.231,3.61-0.695c1.102-0.464,2.059-1.103,2.87-1.914
		c0.812-0.812,1.443-1.77,1.893-2.871c0.45-1.103,0.676-2.291,0.676-3.567C239.066,173.718,238.841,172.493,238.391,171.376
		 M236.021,177.662c-0.319,0.812-0.776,1.521-1.37,2.131c-0.595,0.609-1.299,1.088-2.109,1.436
		c-0.813,0.349-1.697,0.522-2.654,0.522s-1.85-0.174-2.675-0.522c-0.827-0.348-1.544-0.826-2.153-1.436s-1.088-1.319-1.436-2.131
		c-0.348-0.812-0.522-1.697-0.522-2.654s0.175-1.841,0.522-2.652c0.348-0.812,0.826-1.516,1.436-2.11
		c0.609-0.594,1.326-1.066,2.153-1.414c0.825-0.347,1.718-0.522,2.675-0.522s1.841,0.176,2.654,0.522
		c0.811,0.348,1.515,0.82,2.109,1.414c0.594,0.595,1.051,1.305,1.37,2.132c0.318,0.826,0.478,1.718,0.478,2.675
		C236.498,175.98,236.339,176.85,236.021,177.662 M199.263,172.355c0.349-0.812,0.827-1.516,1.437-2.11
		c0.608-0.594,1.326-1.066,2.152-1.414c0.826-0.347,1.719-0.522,2.676-0.522s1.848,0.176,2.674,0.522
		c0.828,0.348,1.545,0.827,2.154,1.436c0.609,0.609,1.088,1.32,1.436,2.132c0.348,0.812,0.521,1.683,0.521,2.609
		c0,0.957-0.174,1.842-0.521,2.654c-0.348,0.812-0.826,1.521-1.436,2.131s-1.326,1.088-2.154,1.436
		c-0.826,0.349-1.717,0.522-2.674,0.522s-1.85-0.174-2.676-0.522c-0.826-0.348-1.544-0.826-2.152-1.436
		c-0.609-0.609-1.088-1.319-1.437-2.131c-0.349-0.812-0.522-1.697-0.522-2.654S198.914,173.167,199.263,172.355 M197.045,178.597
		c0.463,1.088,1.094,2.038,1.892,2.85c0.798,0.812,1.755,1.458,2.871,1.936c1.116,0.479,2.327,0.718,3.632,0.718
		c0.899,0,1.725-0.108,2.48-0.325c0.753-0.219,1.428-0.516,2.021-0.893s1.096-0.79,1.502-1.24c0.405-0.448,0.709-0.92,0.913-1.414
		c0,0.262-0.008,0.537-0.022,0.827c-0.014,0.29-0.021,0.596-0.021,0.914v1.783h2.393v-17.4h-2.219l-0.174,3.61
		c-0.203-0.463-0.508-0.935-0.912-1.413c-0.408-0.479-0.908-0.914-1.502-1.305c-0.595-0.393-1.269-0.703-2.023-0.937
		c-0.754-0.23-1.565-0.348-2.436-0.348c-1.246,0-2.422,0.24-3.523,0.718c-1.103,0.479-2.066,1.14-2.893,1.979
		c-0.826,0.842-1.479,1.82-1.957,2.937s-0.718,2.298-0.718,3.545C196.349,176.357,196.58,177.51,197.045,178.597 M194.957,165.96
		c-0.639,0-1.313,0.117-2.023,0.348c-0.711,0.233-1.393,0.56-2.045,0.979c-0.652,0.421-1.254,0.929-1.805,1.522
		c-0.551,0.595-1,1.27-1.348,2.022l-0.219-4.48h-2.044v17.4h2.392v-9.048c0-0.87,0.182-1.66,0.545-2.371
		c0.361-0.71,0.848-1.312,1.457-1.805c0.608-0.493,1.312-0.877,2.109-1.153c0.797-0.275,1.631-0.413,2.501-0.413L194.957,165.96z
		 M175.772,172.551c-0.985,0.392-1.985,0.798-3.001,1.218c-1.016,0.421-2.029,0.834-3.045,1.239
		c-1.016,0.407-1.973,0.798-2.871,1.175c-0.087-0.348-0.131-0.754-0.131-1.218c0-0.898,0.174-1.747,0.521-2.545
		c0.349-0.797,0.828-1.501,1.437-2.11c0.608-0.608,1.319-1.094,2.131-1.457c0.812-0.361,1.683-0.544,2.61-0.544
		c1.102,0,2.104,0.283,3.002,0.85c0.898,0.564,1.594,1.341,2.088,2.327C177.672,171.804,176.759,172.159,175.772,172.551
		 M178.209,179.967c-0.58,0.552-1.291,0.987-2.131,1.306c-0.842,0.319-1.727,0.479-2.654,0.479c-1.393,0-2.631-0.362-3.719-1.088
		c-1.088-0.724-1.893-1.681-2.414-2.871c1.072-0.435,2.232-0.906,3.479-1.413c1.246-0.507,2.501-1.015,3.763-1.522
		s2.494-1,3.697-1.479c1.203-0.478,2.299-0.906,3.284-1.283c-0.667-1.798-1.704-3.276-3.11-4.437s-3.066-1.74-4.98-1.74
		c-1.247,0-2.421,0.239-3.523,0.718s-2.066,1.131-2.893,1.957c-0.826,0.827-1.479,1.799-1.957,2.915s-0.719,2.298-0.719,3.545
		s0.24,2.422,0.719,3.523c0.479,1.103,1.131,2.06,1.957,2.871c0.826,0.812,1.798,1.458,2.915,1.936
		c1.116,0.479,2.312,0.718,3.588,0.718c1.218,0,2.394-0.217,3.524-0.652s2.115-1.029,2.957-1.783L178.209,179.967z M144.628,183.752
		h2.392v-9.222c0-0.899,0.167-1.726,0.5-2.48c0.333-0.753,0.799-1.406,1.393-1.957s1.283-0.979,2.066-1.283s1.639-0.457,2.566-0.457
		c1.275,0.059,2.232,0.436,2.871,1.132c0.638,0.695,0.986,1.537,1.043,2.522v11.745h2.394V171.18
		c-0.06-1.565-0.595-2.827-1.61-3.783c-1.015-0.957-2.392-1.437-4.131-1.437c-1.74,0.03-3.214,0.472-4.416,1.327
		c-1.203,0.855-2.096,1.951-2.676,3.284v-20.141h-2.392V183.752z M133.535,166.526h-3.48v2.175h3.48v15.051h2.393v-15.051h5.176
		v-2.175h-5.176v-7.787h-2.393V166.526z M112.438,172.42c0.348-0.826,0.827-1.544,1.436-2.153c0.609-0.608,1.319-1.088,2.131-1.436
		c0.812-0.347,1.682-0.522,2.61-0.522c0.928,0,1.806,0.176,2.632,0.522c0.827,0.348,1.544,0.827,2.153,1.436
		c0.609,0.609,1.088,1.327,1.436,2.153c0.348,0.827,0.522,1.704,0.522,2.632c0,0.929-0.174,1.798-0.522,2.61
		c-0.348,0.812-0.827,1.521-1.436,2.131c-0.609,0.609-1.326,1.088-2.153,1.436c-0.826,0.349-1.704,0.522-2.632,0.522
		c-0.928,0-1.798-0.174-2.61-0.522c-0.812-0.348-1.522-0.826-2.131-1.436c-0.609-0.609-1.088-1.319-1.436-2.131
		c-0.348-0.812-0.522-1.682-0.522-2.61C111.916,174.124,112.09,173.247,112.438,172.42 M110.242,178.662
		c0.478,1.103,1.131,2.06,1.957,2.871c0.827,0.812,1.79,1.442,2.893,1.893c1.102,0.449,2.29,0.674,3.567,0.674
		c1.305,0,2.508-0.238,3.61-0.718c1.102-0.478,2.067-1.123,2.893-1.936c0.827-0.812,1.472-1.769,1.936-2.871
		c0.463-1.102,0.696-2.276,0.696-3.523s-0.233-2.429-0.696-3.545c-0.464-1.116-1.103-2.088-1.914-2.915
		c-0.812-0.826-1.777-1.479-2.893-1.957c-1.117-0.479-2.313-0.718-3.589-0.718s-2.472,0.239-3.588,0.718
		c-1.117,0.479-2.088,1.131-2.915,1.957c-0.826,0.827-1.479,1.799-1.957,2.915c-0.479,1.116-0.718,2.298-0.718,3.545
		C109.524,176.357,109.763,177.561,110.242,178.662 M89.819,183.752h2.392v-9.222c0-0.899,0.167-1.726,0.5-2.48
		c0.333-0.753,0.798-1.406,1.392-1.957c0.594-0.551,1.284-0.979,2.067-1.283c0.783-0.305,1.638-0.457,2.566-0.457
		c1.276,0.059,2.233,0.436,2.871,1.132c0.638,0.695,0.986,1.537,1.044,2.522v11.745h2.393V171.18
		c-0.059-1.565-0.595-2.827-1.61-3.783c-1.015-0.957-2.392-1.437-4.132-1.437c-1.74,0.03-3.213,0.472-4.416,1.327
		s-2.095,1.951-2.675,3.284v-20.141h-2.392V183.752z M79.727,181.751c-0.957,0-1.849-0.174-2.675-0.522
		c-0.827-0.348-1.544-0.826-2.153-1.436c-0.609-0.609-1.088-1.319-1.436-2.131c-0.348-0.812-0.522-1.682-0.522-2.61
		c0-0.957,0.174-1.849,0.522-2.675c0.348-0.827,0.827-1.537,1.436-2.132c0.609-0.594,1.326-1.066,2.153-1.414
		c0.826-0.347,1.718-0.522,2.675-0.522c1.653,0,3.074,0.479,4.263,1.437c0.261-0.319,0.522-0.616,0.783-0.893
		c0.261-0.274,0.507-0.571,0.74-0.892c-0.783-0.637-1.668-1.13-2.654-1.479c-0.986-0.349-2.03-0.522-3.132-0.522
		c-1.276,0-2.473,0.24-3.589,0.718c-1.116,0.479-2.088,1.124-2.914,1.937c-0.827,0.812-1.479,1.776-1.958,2.893
		c-0.478,1.116-0.717,2.298-0.717,3.545s0.239,2.422,0.717,3.523c0.479,1.103,1.131,2.06,1.958,2.871
		c0.826,0.812,1.798,1.458,2.914,1.936c1.116,0.479,2.313,0.718,3.589,0.718c1.102,0,2.138-0.174,3.11-0.521
		c0.972-0.348,1.849-0.841,2.632-1.479l-1.479-1.783C82.801,181.272,81.38,181.751,79.727,181.751 M68.765,166.352h-2.567
		c-0.87,1.74-1.624,3.307-2.262,4.698c-0.638,1.393-1.211,2.661-1.718,3.807c-0.508,1.146-0.957,2.212-1.349,3.196
		c-0.391,0.987-0.79,1.944-1.196,2.871c-0.406-0.927-0.812-1.884-1.218-2.871c-0.406-0.984-0.863-2.051-1.37-3.196
		c-0.508-1.146-1.081-2.414-1.718-3.807c-0.639-1.392-1.392-2.958-2.262-4.698h-2.567c1.334,2.697,2.639,5.488,3.915,8.374
		c1.276,2.887,2.581,5.662,3.915,8.33c-0.435,0.957-0.82,1.82-1.153,2.588c-0.333,0.769-0.645,1.501-0.935,2.197
		s-0.587,1.385-0.892,2.066c-0.304,0.681-0.645,1.414-1.022,2.196h2.523L68.765,166.352z M45.579,166.526
		c-0.899-0.319-1.725-0.479-2.479-0.479c-0.581,0-1.182,0.087-1.806,0.261c-0.623,0.175-1.181,0.457-1.674,0.85
		c-0.494,0.391-0.899,0.885-1.218,1.479c-0.32,0.595-0.479,1.326-0.479,2.196c0,0.957,0.203,1.74,0.609,2.349
		c0.406,0.609,0.914,1.104,1.523,1.479c0.609,0.378,1.276,0.689,2.001,0.936c0.724,0.246,1.392,0.516,2.001,0.805
		c0.609,0.291,1.116,0.631,1.522,1.022c0.406,0.392,0.609,0.921,0.609,1.587c0,0.494-0.102,0.914-0.304,1.263
		c-0.203,0.348-0.472,0.638-0.805,0.869c-0.334,0.232-0.696,0.399-1.088,0.5c-0.391,0.103-0.761,0.152-1.109,0.152
		c-0.406,0-0.826-0.057-1.261-0.174c-0.435-0.115-0.842-0.253-1.218-0.413c-0.377-0.159-0.711-0.326-1.001-0.5
		s-0.478-0.333-0.565-0.479c-0.029,0-0.095,0.066-0.196,0.196c-0.102,0.131-0.225,0.283-0.37,0.457s-0.304,0.363-0.478,0.565
		c-0.174,0.204-0.32,0.362-0.435,0.479c0.637,0.754,1.471,1.306,2.501,1.653c1.029,0.348,2.037,0.521,3.023,0.521
		c1.827,0,3.234-0.5,4.22-1.501c0.985-1,1.479-2.225,1.479-3.676c0-0.927-0.203-1.688-0.609-2.283
		c-0.407-0.594-0.914-1.08-1.523-1.458c-0.609-0.376-1.269-0.695-1.979-0.957c-0.711-0.261-1.37-0.535-1.979-0.825
		s-1.117-0.632-1.523-1.022c-0.406-0.392-0.609-0.921-0.609-1.588c0-0.436,0.094-0.805,0.283-1.109
		c0.188-0.305,0.42-0.551,0.696-0.739c0.275-0.188,0.58-0.326,0.913-0.413c0.334-0.087,0.646-0.131,0.936-0.131
		c0.696,0,1.384,0.138,2.066,0.413c0.681,0.276,1.138,0.573,1.37,0.892l1.305-1.696C47.261,167.338,46.478,166.845,45.579,166.526
		 M21.915,183.752v-12.441h4.654c1.798,0,3.335-0.274,4.611-0.826c1.276-0.551,2.313-1.269,3.111-2.153
		c0.797-0.884,1.384-1.899,1.761-3.045s0.566-2.312,0.566-3.502c0-1.565-0.283-2.914-0.848-4.045
		c-0.566-1.131-1.32-2.073-2.262-2.828c-0.943-0.753-2.023-1.312-3.241-1.674c-1.218-0.363-2.48-0.544-3.785-0.544h-7.525v31.059
		H21.915z M21.915,155.477h4.654c1.16,0,2.19,0.182,3.089,0.545c0.899,0.362,1.638,0.841,2.218,1.435
		c0.58,0.595,1.023,1.277,1.327,2.045c0.305,0.768,0.457,1.544,0.457,2.327c0,0.638-0.109,1.342-0.326,2.11
		c-0.218,0.768-0.595,1.493-1.131,2.175c-0.537,0.681-1.269,1.247-2.197,1.695c-0.928,0.45-2.088,0.676-3.48,0.676h-4.611V155.477z"
		/>
</g>
<polygon points="126.145,63.133 120.798,55.604 96.009,20.695 103.402,62.885 104.993,71.974 105.829,71.881 104.268,62.787 
	98.071,26.672 129.421,101.863 130.152,101.562 98.799,26.354 120.027,56.139 125.384,63.655 "/>
<polygon fill="none" stroke="#1C1463" stroke-width="0.601" stroke-miterlimit="10" points="126.145,63.133 120.798,55.604 
	96.009,20.695 103.402,62.885 104.993,71.974 105.829,71.881 104.268,62.787 98.071,26.672 129.421,101.863 130.152,101.562 
	98.799,26.354 120.027,56.139 125.384,63.655 "/>
<g>
</g>
<g>
</g>
<g>
</g>
<g>
</g>
<g>
</g>
<g>
</g>
<g>
</g>
<g>
</g>
<g>
</g>
<g>
</g>
<g>
</g>
<g>
</g>
<g>
</g>
<g>
</g>
<g>
</g>
</svg>
