<?xml version="1.0" encoding="utf-8"?>
<!-- Generator: Adobe Illustrator 16.0.4, SVG Export Plug-In . SVG Version: 6.00 Build 0)  -->
<!DOCTYPE svg PUBLIC "-//W3C//DTD SVG 1.1//EN" "http://www.w3.org/Graphics/SVG/1.1/DTD/svg11.dtd">
<svg version="1.1" id="Ebene_1" xmlns="http://www.w3.org/2000/svg" xmlns:xlink="http://www.w3.org/1999/xlink" x="0px" y="0px"
	 width="418px" height="101px" viewBox="0 0 418 101" enable-background="new 0 0 418 101" xml:space="preserve">
<path fill-rule="evenodd" clip-rule="evenodd" fill="#1C1463" d="M272.873,49.918c0.414,3.647,1.005,6.501,3.425,8.854
	c4.605,4.48,9.971,4.56,15.655,3.057c2.438-0.647,5.104-0.496,7.246-2.305c1.674-1.414,1.922-3.026,0.517-4.74
	c-0.515-0.629-0.701-1.553-0.963-2.365c-0.995-3.129-1.885-6.292-2.953-9.392c-1.455-4.211-3.065-8.37-4.535-12.579
	c-0.197-0.564-0.084-1.327,0.129-1.908c0.127-0.344,0.747-0.719,1.122-0.697c0.378,0.022,0.94,0.444,1.066,0.812
	c1.739,5.151,3.415,10.322,5.11,15.489c0.272,0.014,0.544,0.028,0.817,0.042c0.443-1.089,0.96-2.154,1.317-3.272
	c1.28-3.968,3.302-7.294,7.329-9.038c2.691-1.164,5.432-1.568,8.242-0.6c2.639,0.909,3.628,2.843,3.087,5.6
	c-0.743,3.815-3.819,5.824-6.332,8.268c-2.902,2.819-6.565,4.85-8.677,8.494c-1.019,1.757-0.735,2.972,1.277,2.995
	c5.842,0.063,11.688-0.221,17.53-0.382c0.235-0.008,0.47-0.169,0.958-0.354c-2.978-1.554-3.822-4.276-4.337-7.057
	c-0.522-2.834,0.572-5.319,2.036-7.771c1.637-2.739,3.715-4.907,6.445-6.49c2.77-1.603,5.825-1.395,8.045,0.613
	c0.507,0.461,1.007,1.086,1.189,1.727c1.518,5.3,1.824,10.499-1.614,15.289c-0.142,0.199-0.205,0.454-0.076,0.886
	c0.592-0.622,1.184-1.243,1.783-1.874c1.409,0.316,2.168,1.055,2.368,2.51c0.221,1.607,1.164,2.096,2.681,1.311
	c2.596-1.34,3.925-3.601,4.702-6.292c0.29-1.006,0.646-1.989,0.958-2.989c0.837-2.678,1.06-5.263,0.286-8.116
	c-1.041-3.848-1.531-7.854-2.078-11.817c-0.195-1.443-0.44-2.089-2.117-1.913c-4.938,0.519-9.897,0.824-14.844,1.268
	c-1.329,0.12-2.331-0.159-2.22-1.666c0.111-1.502,1.217-1.759,2.57-1.746c5.257,0.047,10.517,0.007,15.776-0.011
	c0.107,0,0.214-0.132,0.685-0.441c-0.146-1.874-0.36-3.959-0.449-6.049c-0.05-1.179,0.077-2.367,0.164-3.549
	c0.141-1.891,0.982-2.964,2.881-2.549c0.534,3.772,1.113,7.464,1.553,11.173c0.133,1.125,0.463,1.521,1.639,1.659
	c4.631,0.55,9.241,1.25,13.855,1.915c0.416,0.061,0.81,0.279,1.211,0.426c-0.021,0.17-0.047,0.34-0.07,0.51
	c-5.315-0.433-10.628-0.865-16.196-1.317c-0.021,1.962,0.026,3.654-0.069,5.339c-0.455,7.929,1.928,15.057,6.138,21.638
	c1.959,3.057,3.954,3.483,7.235,1.843c4.908-2.452,8.118-7.92,7.255-13.334c-0.669-4.207-2.147-8.277-3.001-12.465
	c-1.023-5.019-1.769-10.096-2.629-15.148c-0.023-0.13-0.07-0.3-0.013-0.391c0.584-0.913,1.19-1.812,1.787-2.715
	c0.607,0.897,1.628,1.745,1.741,2.703c0.277,2.336-0.146,4.768,0.223,7.079c0.64,4.005,1.616,7.962,2.551,11.915
	c0.569,2.415,1.326,4.785,2.053,7.367c0.949-1.334,1.671-2.583,2.616-3.628c4.174-4.616,11.622-3.805,14.674,1.506
	c2.168,3.772,3.477,8.041,5.142,12.1c0.223,0.541,0.298,1.147,0.411,1.729c0.738,3.715,2.655,5.979,6.768,5.98
	c1.506,0.001,3.013,0.56,4.52,0.865c-0.008,0.299-0.013,0.598-0.019,0.897c-1.486,0.115-2.994,0.44-4.456,0.297
	c-2.212-0.221-4.545-0.427-6.531-1.308c-1.103-0.49-1.873-2.249-2.317-3.594c-0.824-2.491-1.148-5.145-1.953-7.645
	c-1.014-3.15-1.961-6.393-4.557-8.734c-4.629-4.179-9.953-2.643-12.03,3.677c-0.725,2.196-0.782,4.638-0.955,6.98
	c-0.183,2.473-0.138,4.962-0.19,7.283c-1.058,0.297-1.819,0.511-2.801,0.783c-1.808-1.236,0.111-3.297-0.486-4.652
	c-1.951,1.544-3.729,3.286-5.812,4.511c-2.321,1.363-5.013,1.521-7.687,1.051c-1.979-0.349-2.991-1.878-3.856-3.415
	c-1.337-2.377-2.489-4.857-3.913-7.672c-0.441,1.862-0.735,3.37-1.164,4.836c-0.833,2.847-1.759,5.755-4.262,7.553
	c-1.409,1.013-3.262,1.867-4.935,1.905c-1.198,0.027-2.433-1.42-3.44-2.072c-3.431,0.268-6.85,0.493-10.257,0.817
	c-1.295,0.124-2.562,0.626-3.853,0.694c-5.782,0.308-11.564,0.538-17.347,0.765c-2.066,0.082-3.876,0.082-5.562,1.994
	c-1.303,1.478-3.671,2.302-5.716,2.785c-6.261,1.488-12.646,2.697-18.428-1.489c-2.857-2.069-4.513-5.066-5.477-8.48
	c-1.044-3.703-0.729-7.392,0.408-10.911c0.474-1.469,1.949-2.875,3.328-3.731c2.205-1.369,4.611-2.681,7.105-3.254
	c4.953-1.137,7.405,1.581,7.534,6.295c0.175,6.353-2.284,8.032-8.424,9.898C277.543,52.853,275.344,52.162,272.873,49.918z
	 M336.144,42.424c-0.034-0.201-0.093-0.592-0.17-0.979c-0.957-4.866-4.215-6.165-8.044-2.885c-1.787,1.531-3.077,3.724-4.318,5.782
	c-1.298,2.157-0.976,4.568-0.262,6.881c0.6,1.938,4.376,3.964,5.979,3.116C333.014,52.394,336.693,47.798,336.144,42.424z
	 M302.271,51.812c3.037-2.401,6.068-4.491,8.711-6.993c2.065-1.956,3.833-4.304,5.385-6.703c1.331-2.06,0.436-4.661-1.525-5.018
	c-2.342-0.424-4.615-0.193-6.792,1.134C302.909,37.365,300.757,46.152,302.271,51.812z M279.205,49.287
	c0.091,0.157,0.181,0.315,0.274,0.472c1.926-1.177,4.006-2.165,5.729-3.587c1.549-1.276,1.555-4.877,0.394-6.454
	c-1.227-1.663-4.018-2.341-6.068-1.155c-1.547,0.896-2.905,2.153-4.241,3.368c-1.469,1.338-1.916,3.042-0.883,4.822
	C275.443,48.539,277.083,49.423,279.205,49.287z"/>
<path fill-rule="evenodd" clip-rule="evenodd" fill="#1C1463" d="M24.665,55.9c-0.793,0.729-1.16,1.121-1.583,1.445
	c-2.975,2.273-3.672,4.623-2.908,8.295c1.312,6.312,5.769,9.886,10.986,12.654c5.378,2.854,11.221,3.288,17.131,2.059
	c4.148-0.863,6.447-3.358,6.173-6.748c-0.12-1.485-0.676-3.248-1.661-4.285c-2.79-2.938-5.937-5.532-8.884-8.328
	c-2.189-2.075-4.526-4.063-6.372-6.422c-3.141-4.016-2.412-8.378,1.362-12.218c2.94-2.989,6.743-4.021,10.56-4.795
	c1.428-0.29,3.398,0.469,4.678,1.376c4.303,3.05,4.475,10.859,0.448,13.354c-0.595,0.368-1.37,0.443-2.062,0.656
	c-0.075-0.151-0.15-0.302-0.224-0.452c0.243-0.251,0.46-0.535,0.732-0.751c3.363-2.637,3.845-7.337,0.854-10.449
	c-0.862-0.898-2.295-1.644-3.517-1.728c-4.833-0.33-10.436,3.776-12.063,8.313c-1.056,2.941-0.073,5.397,1.945,7.159
	c3.817,3.33,7.965,6.276,11.886,9.553c0.103-1.144,1.403-1.271,2.927-1.136c3.12,0.275,6.249,0.465,9.424,0.692
	c-1.144-4.089-2.284-8.05-3.352-12.032c-0.579-2.156-1.078-4.338-1.53-6.526c-0.209-1.004-0.511-2.404,0.964-2.481
	c0.616-0.032,1.679,1.148,1.89,1.949c1.191,4.505,2.174,9.065,3.258,13.6c0.182,0.762,0.472,1.504,0.785,2.223
	c1.758,4.031,1.766,4.026,6.271,4.463c0.721-1.44,0.615-2.757-0.183-4.241c-0.372-0.69-0.217-1.894,0.145-2.649
	c0.165-0.343,1.416-0.167,2.523-0.253c1.493-2.609,3.78-5.042,7.081-6.423c3.945-1.65,7.12-0.268,7.66,3.804
	c0.435,3.269,0.234,6.54-2.809,8.929c-2.572,2.02-5.391,1.961-8.326,1.541c-0.826-0.119-1.622-0.451-2.45-0.691
	c-0.272,4.405,1.932,7.852,6.6,9.946c2.138,0.959,4.712,1.415,7.06,1.326c3.576-0.136,7.126-0.948,10.692-1.457
	c0.351-0.049,0.718,0.013,1.076,0.021c0.077,0.182,0.153,0.364,0.23,0.546c-1.234,0.741-2.381,1.776-3.718,2.17
	c-5.648,1.669-11.392,1.424-16.949-0.258c-3.819-1.152-6.259-4.291-7.341-7.987c-0.7-2.392-1.845-2.851-3.901-2.558
	c-0.376,0.052-0.755,0.061-1.154,0.092c0.765,3.547,1.523,6.929,2.21,10.324c0.154,0.76,0.316,1.702,0.002,2.318
	c-0.302,0.592-1.218,0.872-1.863,1.288c-0.176-0.544-0.397-1.08-0.513-1.636c-0.187-0.893-0.241-1.815-0.458-2.697
	c-0.663-2.681-1.372-5.347-2.072-8.017c-0.399-1.509-1.127-2.492-2.953-2.423c-3.192,0.12-6.392,0.057-10.204,0.071
	c0.771,1.066,1.081,1.6,1.491,2.043c4.306,4.66,3.497,11.605-3.76,13.66c-10.019,2.836-19.258,0.811-27.092-6.43
	c-4.188-3.871-6.22-8.567-5.645-14.277C18.463,58.435,21.341,55.774,24.665,55.9z M82.163,63.745
	c3.41-0.282,5.064-2.231,5.365-6.319c0.207-2.83-1.764-4.338-4.257-2.976c-1.727,0.944-3.323,2.315-4.608,3.812
	c-0.852,0.994-1.74,2.797-1.382,3.799c0.634,1.78,2.807,1.541,4.488,1.718C81.898,63.792,82.031,63.762,82.163,63.745z"/>
<path fill-rule="evenodd" clip-rule="evenodd" fill="#1C1463" d="M104.743,66.884c1.022,3.333,1.853,6.08,2.708,8.82
	c1.589,5.083,3.179,10.164,4.798,15.235c0.279,0.874,0.826,1.671,1.044,2.552c0.199,0.812,0.119,1.69,0.157,2.475
	c-2.969-0.07-3.324-1.813-3.877-3.752c-2.344-8.221-4.849-16.399-7.407-24.559c-0.176-0.558-1.295-1.219-1.925-1.169
	c-2.526,0.192-5.035,0.631-7.544,1.008c-0.742,0.11-1.469,0.312-2.203,0.47c-0.175-0.201-0.35-0.403-0.526-0.604
	c0.495-0.664,0.86-1.521,1.509-1.953c2.131-1.422,4.56-1.555,7.043-1.306c0.706,0.068,1.427-0.007,2.5-0.021
	c-1.077-3.03-2.048-5.92-3.126-8.77c-2.088-5.528-4.196-11.058-4.715-17.002c-0.36-4.121-0.193-8.196,2.805-11.539
	c1.968-2.194,4.068-2.109,5.996,0.083c4.826,5.493,7.744,11.946,9.07,19.027c0.79,4.22,0.691,8.535-2.413,12.165
	c-1.11,1.297-2.393,1.639-4.337,1.631c0.423-0.77,0.572-1.396,0.97-1.709c3.439-2.697,4.252-6.504,3.929-10.45
	c-0.556-6.784-3.037-12.871-7.791-17.896c-1.61-1.7-2.93-1.572-3.99,0.547c-1.791,3.577-1.963,7.466-0.994,11.192
	c1.451,5.587,3.395,11.047,5.129,16.562c0.217,0.688,0.453,1.37,0.659,2.063c1.213,4.113,3.246,5.794,7.551,6.227
	c0.454,0.045,0.912,0.037,1.466,0.057c-0.032-1.847-0.107-3.663-0.082-5.477c0.048-3.533,1.244-6.699,3.32-9.514
	c1.192-1.619,2.395-3.287,3.868-4.633c2.457-2.243,5.562-2.458,8.569-1.559c2.388,0.716,3.049,3.132,3.559,5.279
	c0.436,1.835,0.227,3.822,0.68,5.65c1.317,5.31,2.903,10.523,8.049,13.6c1.183,0.706,2.26,1.63,3.508,2.163
	c0.804,0.341,1.841,0.098,2.757,0.229c0.469,0.067,0.9,0.39,1.47,0.654c-1.42,1.61-2.703,1.983-4.58,1.447
	c-4.81-1.373-8.055-4.735-11.275-8.313c-2.859,5.226-7.636,6.64-13.06,6.794c-1.632,0.045-2.991-0.561-3.916-1.87
	C111.842,67.537,108.192,68.277,104.743,66.884z M124.812,63.803c0.445-0.309,0.75-0.439,0.943-0.665
	c2.88-3.383,3.499-7.299,2.349-11.451c-0.408-1.468-0.685-3.631-2.706-3.695c-1.666-0.053-3.655,0.29-4.985,1.207
	c-4.876,3.36-7.413,11.146-5.864,16.936c0.803,3.004,2.873,4.297,5.966,3.688c1.093-0.216,2.161-0.552,3.252-0.775
	c1.875-0.384,2.445-0.817,3.323-2.712c-0.482,0.199-0.975,0.283-1.31,0.56c-1.271,1.044-2.284,0.525-2.84-0.665
	c-0.765-1.641-1.341-3.389-1.791-5.144c-0.118-0.46,0.528-1.113,0.824-1.678c0.532,0.391,1.254,0.67,1.555,1.191
	C124.068,61.538,124.358,62.622,124.812,63.803z"/>
<path fill-rule="evenodd" clip-rule="evenodd" fill="#1C1463" d="M176.691,51.163c-1.975,4.52-0.396,10.445,3.629,13.369
	c1.067,0.776,2.109,1.666,3.303,2.174c1.892,0.805,3.868,1.717,5.868,1.887c2.8,0.239,5.656-0.137,8.485-0.289
	c2.337-0.128,4.669-0.342,7.007-0.442c0.539-0.022,1.091,0.263,1.636,0.409c-0.416,0.454-0.767,1.199-1.264,1.313
	c-1.854,0.431-3.749,0.773-5.646,0.933c-5.102,0.437-10.205,0.975-15.287-0.333c-6.48-1.665-11.87-8.846-11.216-15.938
	c0.147-1.606,2.27-3.197,0.377-4.786c-1.339-1.124-3.152-1.676-4.512-2.781c-3.198-2.604-6.758-5.002-7.776-9.377
	c-0.148-0.632,0.622-1.477,0.968-2.222c0.578,0.424,1.424,0.723,1.692,1.294c2.465,5.231,5.982,8.828,10.803,11.026
	c1.575-1.868,2.868-3.938,4.667-5.374c1.576-1.258,3.641-2.153,5.626-2.597c4.923-1.1,6.982,1.922,6.965,6.554
	c-0.016,4.409-2.936,6.838-7.398,6.503C182.017,52.289,179.449,51.64,176.691,51.163z M184.433,50.521
	c1.168-0.409,2.145-0.606,2.971-1.069c1.994-1.118,2.745-3.628,1.92-5.99c-0.577-1.647-2.12-2.344-4.587-1.911
	c-3.475,0.61-5.668,2.829-6.965,5.97c-0.154,0.374,0.344,1.424,0.728,1.542C180.479,49.669,182.521,50.072,184.433,50.521z"/>
<path fill-rule="evenodd" clip-rule="evenodd" fill="#1C1463" d="M233.173,30.246c1.463,3.271,2.867,6.158,4.044,9.138
	c0.668,1.695,0.991,3.528,1.412,5.313c0.274,1.16,0.301,2.389-1.207,2.645c-1.656,0.28-1.567-1.229-1.881-2.207
	c-0.994-3.116-1.856-6.275-2.941-9.359c-0.584-1.663-1.351-3.318-2.346-4.764c-0.673-0.976-1.779-1.954-2.88-2.275
	c-3.587-1.046-5.875-4.667-5.747-8.485c0.02-0.594,0.62-1.521,1.12-1.654c0.609-0.162,1.635,0.144,2.065,0.62
	c1.797,1.986,3.386,4.162,5.166,6.165c0.792,0.893,1.755,1.976,2.818,2.229c7.524,1.797,15.177,2.438,22.879,1.548
	c4.929-0.568,9.831-1.402,14.718-2.263c1.787-0.316,3.499-1.052,5.228-1.59c-0.167-0.788-0.293-1.386-0.491-2.32
	c0.949,0.138,1.713,0.071,2.273,0.378c0.628,0.346,1.348,0.955,1.514,1.584c0.134,0.511-0.338,1.494-0.827,1.786
	c-1.22,0.725-2.555,1.479-3.925,1.681c-5.716,0.849-11.441,1.881-17.195,2.122c-7.142,0.299-14.315-0.116-21.477-0.225
	C234.788,30.301,234.083,30.272,233.173,30.246z"/>
<path fill-rule="evenodd" clip-rule="evenodd" fill="#1C1463" d="M140.432,59.594c0.695-2.343,0.937-4.461,1.906-6.166
	c2.3-4.042,7.377-4.474,11.053-1.144c4.259,3.857,6.053,8.947,7.303,14.374c0.465,2.02,0.183,4.592,2.822,5.616
	c0.153,0.061,0.28,0.703,0.152,0.87c-0.251,0.322-0.841,0.787-1.027,0.69c-1.205-0.63-2.808-1.135-3.388-2.176
	c-0.858-1.544-0.987-3.5-1.406-5.283c-1.088-4.619-2.838-8.869-6.498-12.116c-2.935-2.604-7.385-2.04-8.152,2.878
	c-0.592,3.8,0.33,7.258,1.645,10.726c0.338,0.891,1.428,2.295-0.891,2.373c-0.361,0.012-0.702,0.671-1.212,1.196
	c-0.268-0.433-0.525-0.755-0.687-1.123c-1.366-3.119-2.702-6.249-4.072-9.363c-1.393-3.166-2.877-6.292-4.168-9.497
	c-0.239-0.592,0.04-1.964,0.435-2.131c1.273-0.532,1.271,0.759,1.662,1.54C137.337,53.712,138.836,56.526,140.432,59.594z"/>
<path fill-rule="evenodd" clip-rule="evenodd" fill="#1C1463" d="M262.622,31.149c0.229,0.812,0.637,1.621,0.656,2.438
	c0.082,3.607-0.217,7.243,0.13,10.822c0.479,4.954,1.327,9.879,2.209,14.785c0.23,1.287,1.222,2.427,1.751,3.682
	c0.219,0.519,0.141,1.16,0.194,1.747c-0.56,0.023-1.344,0.292-1.641,0.023c-0.943-0.854-2.057-1.772-2.483-2.902
	c-2.465-6.549-3.171-13.419-3.128-20.357c0.017-2.731,0.513-5.466,0.886-8.188c0.096-0.706,0.546-1.366,0.834-2.049
	C262.228,31.15,262.424,31.15,262.622,31.149z"/>
<path fill-rule="evenodd" clip-rule="evenodd" fill="#1C1463" d="M172.214,74.136c-0.953-0.772-1.78-1.103-1.979-1.657
	c-0.981-2.765-1.773-5.594-2.681-8.385c-0.851-2.614-1.767-5.209-2.646-7.812c-0.168-0.499-0.502-1.053-0.401-1.501
	c0.154-0.683,0.621-1.297,0.956-1.939c0.593,0.392,1.54,0.662,1.723,1.195c1.339,3.887,2.54,7.82,3.751,11.75
	c0.364,1.182,0.593,2.405,0.959,3.585c0.093,0.304,0.482,0.507,0.721,0.771c0.43,0.473,1.275,1.065,1.187,1.416
	C173.603,72.352,172.94,73.027,172.214,74.136z"/>
<g>
</g>
<g>
</g>
<g>
</g>
<g>
</g>
<g>
</g>
<g>
</g>
<g>
</g>
<g>
</g>
<g>
</g>
<g>
</g>
<g>
</g>
<g>
</g>
<g>
</g>
<g>
</g>
<g>
</g>
</svg>
